<svg width="227" height="198" viewBox="0 0 227 198" fill="none" xmlns="http://www.w3.org/2000/svg">
<g clip-path="url(#clip0_107_616)">
<path d="M39.2391 129.251L39.7944 129.112C39.6809 129.048 39.5705 128.981 39.4633 128.91L39.2391 129.251ZM39.2391 129.251L39.3373 129.647L39.7382 129.547C39.5657 129.455 39.3994 129.357 39.2391 129.251ZM44.9862 130.348L45.0046 130.756C45.008 130.756 45.0114 130.756 45.0148 130.755C45.0182 130.755 45.0215 130.755 45.0249 130.754L44.9862 130.348ZM37.6901 116.118C35.5013 115.902 33.7735 115.34 32.4776 114.466C31.187 113.596 30.3044 112.403 29.82 110.881C29.3025 109.255 29.1643 107.217 29.4742 104.683L29.5059 104.424L29.2845 104.287C25.3804 101.868 22.7762 98.5889 21.4753 94.5018C20.2509 90.6548 20.3763 86.7647 21.8991 82.7424C24.3357 77.0473 28.3466 73.2858 33.9599 71.4842L35.7987 71.0271L36.056 70.9632L36.1023 70.702C36.3238 69.4543 36.7448 68.2507 37.3488 67.1378L37.349 67.1375C38.6859 64.669 40.9276 62.8195 43.5995 61.9802L43.5996 61.9803L43.6078 61.9775C45.2745 61.4149 47.0794 61.4169 48.7451 61.9833C49.4809 62.2401 50.1442 62.6716 50.6783 63.2409C51.2128 63.8107 51.6023 64.5016 51.8133 65.2548L51.8171 65.2683L51.8217 65.2815C52.0357 65.8831 52.0874 66.5308 51.9718 67.1589C51.8564 67.7862 51.5782 68.3717 51.1653 68.8563C50.7422 69.34 50.1967 69.7 49.5866 69.8983C49.095 70.053 48.577 70.1053 48.0645 70.052C47.5517 69.9987 47.0552 69.8409 46.6052 69.588C45.7717 69.1125 45.1417 68.3456 44.8356 67.4336C44.5843 66.6414 44.6527 65.78 45.0801 64.7652C45.2105 64.4639 45.3945 64.189 45.6231 63.9541L45.1721 63.2943C44.5795 63.5471 44.0073 63.8454 43.4605 64.1866C42.4598 64.789 41.7055 65.7289 41.3327 66.838L41.3318 66.8406C40.9552 67.9862 40.9464 69.2213 41.3062 70.3722L41.3886 70.6356L41.6636 70.6566C44.6309 70.883 47.5002 71.8235 50.0286 73.3986C53.7574 75.8766 56.2019 79.0737 57.4455 82.981C58.7078 86.9471 58.5164 91.0543 56.8999 95.1758C54.4454 100.615 50.4537 104.242 44.949 106.006C41.3945 107.144 37.643 107.235 33.652 106.214L32.9388 106.031L33.1623 106.733C33.6334 108.214 35.2341 108.867 37.5457 109.004L37.548 109.004C39.5601 109.111 42.9701 108.834 47.809 108.079L47.8108 108.078C50.7249 107.61 52.7534 107.423 53.9269 107.497L53.9373 107.498L53.9478 107.498C56.0192 107.523 58.0713 107.902 60.0157 108.619C62.8026 109.869 64.4838 111.625 65.1916 113.849C65.7965 115.75 65.7013 117.833 64.9333 120.09C64.1718 122.197 62.9673 124.115 61.4018 125.713L61.3966 125.718L61.3916 125.724C58.7852 128.586 55.2127 130.72 50.7202 132.159L50.7187 132.159C47.1238 133.326 43.8249 133.595 40.7678 132.95C37.2748 132.067 35.0735 130.096 34.0604 126.912L34.0583 126.906C33.5389 125.359 33.4922 123.692 33.9241 122.118C34.471 120.5 35.4828 119.464 36.9115 119.007L36.9152 119.006C37.5644 118.791 38.2496 118.707 38.9313 118.759C39.6131 118.811 40.2781 118.997 40.888 119.307C41.4978 119.618 42.0405 120.046 42.4849 120.568C42.9294 121.09 43.2667 121.694 43.4775 122.347L43.4777 122.348C43.8599 123.526 43.7844 124.806 43.2667 125.93C42.9524 126.582 42.5039 127.159 41.9511 127.623C41.3988 128.087 40.755 128.429 40.0618 128.625L37.6901 116.118ZM36.7878 118.618C37.4882 118.387 38.2274 118.296 38.9628 118.352C39.6982 118.408 40.4154 118.609 41.0731 118.944C41.7308 119.279 42.316 119.74 42.7951 120.303C43.2743 120.865 43.6381 121.517 43.8653 122.221L36.7878 118.618ZM40.1837 77.3992L40.1839 77.399L40.1748 77.3891C38.4186 75.4562 36.7616 74.556 35.122 75.0811C34.0301 75.4308 33.2555 76.4817 32.7596 77.9524L32.7595 77.9523L32.7563 77.9625C31.8047 81.0476 32.1227 84.9908 33.6366 89.7539L33.6366 89.754C34.8263 93.4918 36.4782 96.5711 38.5717 98.8567L38.5773 98.8628L38.5831 98.8687C40.2563 100.553 41.835 101.403 43.3455 100.919C44.8627 100.433 45.6895 98.725 46.0442 96.2624C46.4709 93.5036 46.0767 90.1506 44.8114 86.1749C43.6987 82.6789 42.1457 79.7073 40.1837 77.3992Z" fill="#FFADE3" stroke="#26103D" stroke-width="0.815508"/>
<path d="M75.2153 81.2474C76.5186 85.342 78.1962 88.9272 80.2957 91.9135L80.2956 91.9136L80.3007 91.9205C81.5472 93.6162 82.7415 94.8442 83.8878 95.5712C85.0417 96.3029 86.179 96.5447 87.265 96.1968C88.9781 95.6481 89.9294 93.7046 90.2893 90.837L90.3688 90.2036L90.3504 90.2095L76.4472 62.2082L76.3236 61.8196C75.0626 62.2235 74.2078 63.2992 73.714 64.9025C73.222 66.4998 73.0668 68.6781 73.2332 71.4182L73.233 71.4182L73.234 71.4289C73.5251 74.766 74.1897 78.0595 75.2153 81.2474ZM75.2153 81.2474C75.2152 81.2472 75.2152 81.247 75.2151 81.2468L75.6034 81.1224L75.2155 81.248C75.2154 81.2478 75.2154 81.2476 75.2153 81.2474ZM61.1309 85.7578L61.1308 85.7577C59.8891 81.8608 59.7561 77.6937 60.7464 73.7253C61.7366 69.7574 63.8108 66.1455 66.7353 63.296C69.1353 60.9912 72.0358 59.2769 75.2085 58.2879L75.2088 58.2879C77.7885 57.4816 80.4882 57.13 83.1877 57.2489C88.2658 57.5772 93.0706 59.6742 96.7723 63.1783C100.475 66.6833 102.841 71.3758 103.462 76.445C104.082 81.5142 102.919 86.6413 100.172 90.9405C97.4248 95.2396 93.2674 98.4408 88.4179 99.9913C83.3769 101.597 78.3253 101.32 73.1 99.1168C67.0378 96.3245 63.0832 91.892 61.1309 85.7578Z" fill="#FFADE3" stroke="#26103D" stroke-width="0.815508"/>
<path d="M119.529 67.0541C120.833 71.1487 122.51 74.7339 124.61 77.7202L124.61 77.7203L124.615 77.7272C125.861 79.4229 127.055 80.6509 128.201 81.378C129.354 82.1099 130.491 82.352 131.576 82.0044C133.292 81.4549 134.244 79.5115 134.604 76.6437L134.683 76.0103L134.664 76.0163L120.759 48.0158L120.635 47.6272C119.375 48.0307 118.521 49.1065 118.027 50.7096C117.535 52.3069 117.38 54.4854 117.547 57.2251L117.547 57.2251L117.548 57.2356C117.839 60.5726 118.504 63.8662 119.529 67.0541ZM119.529 67.0541C119.529 67.0539 119.529 67.0537 119.529 67.0535L119.918 66.9291L119.53 67.0547C119.53 67.0545 119.53 67.0543 119.529 67.0541ZM105.445 71.5645L105.445 71.5644C104.203 67.6675 104.07 63.5004 105.061 59.532C106.051 55.5641 108.125 51.9522 111.049 49.1027C113.449 46.7985 116.348 45.0845 119.52 44.0955L119.52 44.0955C122.101 43.2888 124.801 42.937 127.502 43.0557C132.58 43.3839 137.385 45.4809 141.086 48.985C144.789 52.49 147.155 57.1825 147.776 62.2517C148.397 67.3209 147.233 72.448 144.486 76.7472C141.739 81.0463 137.582 84.2475 132.732 85.798C127.691 87.4036 122.639 87.127 117.414 84.9235C111.352 82.1312 107.397 77.6987 105.445 71.5645Z" fill="#FFADE3" stroke="#26103D" stroke-width="0.815508"/>
<path d="M170.144 7.89329L177.022 5.69059L189.851 45.9978L189.851 45.9993C191.183 50.1312 191.134 54.5865 189.71 58.6871L189.707 58.6961L189.704 58.7053C189.148 60.5864 188.257 62.351 187.075 63.9141L187.07 63.9212L187.065 63.9285C184.491 67.6597 180.752 70.4246 176.438 71.7874L176.433 71.789C175.108 72.2264 173.738 72.5128 172.349 72.6428C164.628 72.9389 158.656 70.5224 154.383 65.2915C152.451 62.8434 150.988 60.0579 150.066 57.0758L150.066 57.0757L150.064 57.0695C148.449 52.1303 148.621 46.7786 150.548 41.954C153.092 35.9465 157.191 32.0268 162.931 30.1884L168.372 28.4458L168.76 28.3214L168.636 27.9329L165.201 17.1391C164.918 16.2074 164.821 15.2287 164.915 14.2593C165.01 13.2891 165.295 12.3473 165.754 11.4881C166.212 10.6289 166.836 9.86923 167.588 9.25271C168.341 8.63618 169.207 8.17494 170.137 7.89549L170.137 7.89556L170.144 7.89329ZM178.489 63.2494L178.365 63.2892C178.796 61.365 178.644 59.2108 177.892 56.8499L170.228 32.7705L170.105 32.382L169.716 32.5063C166.236 33.6212 163.92 35.2385 163.026 37.4042C162.307 39.0135 162.084 41.1007 162.307 43.6287C162.529 46.1636 163.203 49.1731 164.308 52.6464C166.225 58.6693 168.507 62.9102 171.189 65.2927C172.674 66.6936 174.163 67.2278 175.685 66.74C176.825 66.3751 177.625 65.4126 178.169 64.0524L178.489 63.2494Z" fill="#FFADE3" stroke="#26103D" stroke-width="0.815508"/>
<path d="M75.3384 156.811C74.8565 157.043 74.3607 157.245 73.8537 157.415C71.8577 158.054 69.8305 157.834 67.7625 156.759C66.1249 155.811 64.8973 154.285 64.3191 152.479C63.7843 150.705 63.9632 148.792 64.8171 147.149C65.6713 145.506 67.133 144.264 68.8887 143.689C70.8761 143.053 72.9795 143.312 75.2255 144.52C76.8203 145.589 77.9682 147.191 78.6764 149.416C80.2377 154.321 80.6651 160.208 79.9804 167.005C78.5917 180.39 74.2103 188.058 67.024 190.36L67.0196 190.361C64.7312 191.123 62.2393 190.979 60.0523 189.96C58.0265 189.007 56.2405 187.316 54.6674 185.007L36.4633 154.214C39.5736 153.218 41.9191 152.467 43.5088 151.966C44.345 151.702 44.9698 151.508 45.3859 151.385C45.5948 151.322 45.7468 151.279 45.8454 151.254C45.8568 151.251 45.867 151.248 45.8761 151.246L45.9655 151.233C47.0186 151.077 48.0924 151.142 49.1193 151.424C51.2372 152.095 53.1021 153.396 54.4667 155.154C54.532 155.271 54.7375 155.633 55.0828 156.241C56.2574 158.307 59.0494 163.22 63.4427 171.03C63.9506 171.933 64.4124 172.755 64.8288 173.497C65.4825 174.66 66.0242 175.624 66.4559 176.39C67.1564 177.631 67.5798 178.372 67.7201 178.581L67.7201 178.581L67.7239 178.586C68.2923 179.404 68.8711 179.999 69.454 180.351C70.0453 180.707 70.658 180.821 71.2475 180.633C71.5181 180.546 71.7553 180.345 71.9642 180.103C72.1784 179.856 72.3943 179.529 72.6138 179.135C73.0532 178.346 73.5334 177.237 74.0579 175.827L74.058 175.827L74.0597 175.822C76.1617 169.946 76.8083 163.728 75.9187 157.123L75.8438 156.567L75.3384 156.811Z" fill="#FFADE3" stroke="#26103D" stroke-width="0.815508"/>
<path d="M80.7693 119.915L80.7715 119.914C82.3158 119.41 83.9826 119.43 85.5144 119.972C87.8679 120.949 89.3556 122.492 90.0675 124.729C90.5879 126.371 90.5055 128.146 89.8353 129.733C88.8031 131.924 87.302 133.342 85.2526 133.999C83.469 134.567 81.5374 134.441 79.8418 133.646C77.856 132.616 76.5729 131.13 75.9724 129.244C75.44 127.555 75.53 125.731 76.2257 124.104C77.2543 121.916 78.7753 120.554 80.7693 119.915ZM89.1143 170.554L89.1143 170.554L89.113 170.55L79.5267 140.43L86.5743 138.173C88.4506 137.572 90.3989 137.758 92.3625 138.722C92.8901 139.061 93.3941 139.436 93.8709 139.844L93.8709 139.844L93.8767 139.849C94.7896 140.601 95.482 141.76 95.9691 143.29L103.227 166.094C103.825 167.972 104.58 169.345 105.524 170.154C106.496 170.987 107.635 171.193 108.88 170.794C110.052 170.419 110.98 169.436 111.588 168.049C112.504 166.079 112.974 163.621 113.077 160.63C113.877 160.374 114.478 160.182 114.891 160.057C114.953 160.039 115.009 160.022 115.061 160.006C114.98 163.304 114.345 166.566 113.182 169.654C111.325 174.242 108.355 177.125 104.372 178.401C101.163 179.429 97.9063 179.117 94.7258 177.47L94.6122 177.412C91.9738 175.917 90.0049 173.463 89.1143 170.554Z" fill="#FFADE3" stroke="#26103D" stroke-width="0.815508"/>
<path d="M103.983 112.48L110.67 110.338L116.608 128.994L116.77 129.504L117.219 129.211C118.765 128.198 120.44 127.398 122.198 126.831C126.758 125.371 131.394 125.583 136.061 127.502C138.058 128.325 139.916 129.454 141.567 130.85C144.715 133.602 147.05 137.168 148.317 141.16L148.317 141.161C149.574 145.111 149.918 148.876 149.361 152.461C148.344 158.274 144.97 163.032 139.2 166.791L139.191 166.797L139.182 166.804C138.431 167.354 137.134 167.907 135.324 168.487C129.942 170.211 124.564 169.712 119.152 166.912C114.298 164.2 111.109 160.316 109.501 155.264L98.8653 121.847L98.8652 121.846C98.2906 120.047 98.4372 118.094 99.2734 116.402C100.281 114.535 101.968 113.13 103.983 112.48ZM135.952 159.853L135.967 159.848L136.014 159.612C136.677 156.294 136.067 151.656 134.207 145.813C132.751 141.237 130.972 137.547 128.944 134.797L128.945 134.797L128.941 134.792C126.758 131.926 124.501 130.585 122.355 131.272C121.013 131.702 120.149 132.923 119.81 134.715C119.474 136.5 119.622 138.465 120.311 140.628L125.561 157.124C126.35 159.603 127.506 161.524 129.126 162.895L129.126 162.895L129.133 162.901C130.447 163.963 131.755 164.323 133.073 163.901C134.515 163.456 135.45 161.987 135.952 159.853Z" fill="#FFADE3" stroke="#26103D" stroke-width="0.815508"/>
<path d="M191.713 142.349C193.122 139.929 194.095 137.279 194.59 134.523L196.406 133.941C196.001 138.739 194.116 143.296 191.005 146.974L191.004 146.976C188.223 150.295 184.553 152.747 180.428 154.041L180.426 154.042C174.429 155.962 168.603 155.535 162.809 152.786C157.24 149.901 153.619 145.689 151.821 140.039L151.821 140.039L151.819 140.033C150.729 136.759 150.382 133.282 150.805 129.856C151.577 124.695 154.047 120.368 158.233 116.862C160.431 115.066 162.949 113.703 165.653 112.845L165.654 112.845C170.112 111.417 174.223 111.476 177.972 113.073C179.563 113.77 180.983 114.808 182.132 116.114C183.282 117.42 184.133 118.963 184.626 120.634L184.626 120.634L184.629 120.643C185.566 123.586 185.085 126.849 183.037 130.45C180.433 134.357 176.846 137.008 172.28 138.47C170.882 138.914 169.45 139.242 167.998 139.449L167.52 139.517L167.666 139.977C167.724 140.158 167.859 140.463 168.046 140.869C168.129 141.051 168.227 141.261 168.336 141.496L168.382 141.597C168.511 141.874 168.656 142.186 168.816 142.535L168.822 142.548L168.829 142.561C169.856 144.428 171.196 146.102 172.791 147.511L172.804 147.523L172.818 147.533C175.828 149.778 179.497 150.182 183.643 148.854C186.82 147.836 189.556 145.646 191.702 142.367L191.708 142.358L191.713 142.349ZM172.903 133.192C173.803 131.309 174.208 129.409 174.06 127.478L174.06 127.476C174.022 127.009 173.845 126.242 173.558 125.21C173.268 124.167 172.857 122.822 172.335 121.182C171.682 119.13 170.914 117.61 170.017 116.681C169.564 116.212 169.068 115.883 168.527 115.723C167.983 115.561 167.419 115.578 166.85 115.761C165.241 116.276 164.194 117.921 163.531 120.498C162.895 122.873 163.181 126.084 164.319 130.088L164.318 130.088L164.322 130.1L166.118 135.741C166.354 136.483 166.697 137.055 167.191 137.381C167.702 137.718 168.299 137.741 168.92 137.542L168.925 137.54C169.488 137.353 170.061 136.953 170.636 136.383C171.215 135.811 171.815 135.048 172.432 134.103L173.059 133.142L172.903 133.192Z" fill="#FFADE3" stroke="#26103D" stroke-width="0.815508"/>
<path d="M200.962 142.942C202.31 142.406 203.451 141.437 204.202 140.179C204.557 139.497 204.774 138.751 204.839 137.985C204.904 137.218 204.815 136.446 204.579 135.714C204.334 134.943 203.937 134.23 203.409 133.618C202.882 133.006 202.236 132.507 201.512 132.152L201.332 132.519C201.336 132.521 201.339 132.522 201.343 132.524M200.962 142.942L201.343 132.524M200.962 142.942C200.809 142.894 200.658 142.838 200.509 142.775L200.35 143.151L200.962 142.942ZM201.343 132.524C200.102 132.007 198.721 131.943 197.438 132.34L197.43 132.343L197.43 132.343C196.169 132.704 195.091 133.531 194.412 134.657C193.671 136.207 193.584 137.924 194.211 139.894C194.738 141.549 195.642 142.841 196.913 143.774C198.188 144.71 199.857 145.302 201.936 145.515C204.702 145.762 207.489 145.433 210.122 144.549L210.128 144.547C214.483 143.152 217.791 141.038 220.095 138.28L220.108 138.263L220.124 138.248C221.059 137.341 221.743 136.204 222.105 134.95L222.11 134.936L222.115 134.921C222.736 133.256 222.78 131.429 222.239 129.736C221.477 127.429 220.025 125.413 218.082 123.961L218.071 123.953L218.072 123.953C216.864 122.987 214.34 121.624 210.505 119.84C207.395 118.487 205.119 117.11 203.644 115.719C202.28 114.489 201.258 112.925 200.678 111.18L200.676 111.175L200.676 111.175C200.124 109.44 200.264 107.859 201.205 106.462L201.211 106.453L201.217 106.445C202.018 105.374 203.14 104.588 204.419 104.203C205.468 103.864 206.575 103.748 207.671 103.863C209.595 104.018 211.083 104.669 212.232 105.808L212.272 105.849L212.3 105.899C212.323 105.94 212.343 105.974 212.361 106.003L214.548 105.303C214.103 104.411 213.306 103.556 212.187 102.72L212.18 102.715L212.18 102.714C211.105 101.874 209.604 101.319 207.625 101.046C205.069 100.759 202.376 101.095 199.521 102.01C195.176 103.401 191.849 105.651 189.375 108.728C187.34 111.452 186.811 114.107 187.65 116.745C188.406 119.084 189.887 121.118 191.877 122.552L191.89 122.56L191.901 122.57C192.946 123.446 195.386 124.766 199.283 126.533L199.287 126.535C202.259 127.922 204.438 129.19 205.721 130.385C207.163 131.613 208.245 133.212 208.85 135.009C209.186 136.003 209.291 137.061 209.156 138.102C209.02 139.142 208.649 140.138 208.07 141.013L208.064 141.021L208.064 141.021C207.198 142.26 205.954 143.181 204.519 143.647C203.112 144.151 201.569 144.108 200.192 143.527L199.129 143.079L200.238 142.759C201.748 142.324 203.037 141.331 203.846 139.98C204.173 139.349 204.373 138.66 204.433 137.951C204.493 137.238 204.411 136.521 204.191 135.84L204.191 135.838C203.963 135.12 203.592 134.455 203.1 133.884C202.612 133.317 202.014 132.854 201.343 132.524Z" fill="#FFADE3" stroke="#26103D" stroke-width="0.815508"/>
<path d="M33.8377 127.188L34.2056 127.097C34.9568 126.886 35.6546 126.517 36.2528 126.014C36.8509 125.512 37.3357 124.887 37.6749 124.182M33.8377 127.188L30.8302 116.696C31.5305 116.464 32.2696 116.373 33.005 116.429C33.7403 116.484 34.4574 116.685 35.115 117.02C35.7726 117.355 36.3576 117.818 36.8364 118.38C37.3152 118.943 37.6784 119.595 37.9049 120.299C38.3218 121.576 38.2395 122.964 37.6749 124.182M33.8377 127.188C33.7237 127.124 33.6129 127.056 33.5052 126.985L33.2806 127.326L33.3776 127.722L33.7806 127.622M33.8377 127.188L33.7806 127.622M37.6749 124.182L37.3078 124.006C37.3073 124.006 37.3069 124.007 37.3065 124.008M37.6749 124.182L37.3052 124.011C37.3057 124.01 37.3061 124.009 37.3065 124.008M37.3065 124.008C36.9924 124.66 36.5441 125.237 35.991 125.702C35.4389 126.166 34.7951 126.507 34.102 126.703L33.1836 126.93L32.2779 127.153L33.056 127.666C34.5889 128.678 36.6082 129.069 39.0545 128.834C40.3048 128.772 41.5432 128.559 42.7424 128.199L42.7424 128.199L42.7494 128.197C45.5233 127.308 47.7205 125.993 49.3694 124.289L49.3724 124.286C50.9986 122.57 51.57 120.655 50.9366 118.665C50.4409 117.107 49.0949 115.902 47.1028 115.027L47.1028 115.027L47.0928 115.023C44.7086 114.051 41.4856 113.795 37.4398 114.149L37.4392 114.149C35.5404 114.317 33.6312 114.333 31.7298 114.196C29.5424 113.98 27.8146 113.418 26.5182 112.544C25.2273 111.674 24.344 110.481 23.8597 108.959C23.3421 107.333 23.2039 105.295 23.5138 102.761L23.5455 102.502L23.3239 102.365C19.4173 99.9474 16.8158 96.6673 15.5149 92.5801C14.2904 88.7328 14.4132 84.8437 15.9386 80.8208C18.3753 75.1255 22.3834 71.3649 27.9994 69.5623L29.8383 69.1053L30.0956 69.0414L30.1419 68.7801C30.3631 67.5324 30.784 66.3288 31.3883 65.2161L31.3885 65.2158C32.7268 62.7471 34.9694 60.8975 37.642 60.0575L37.6421 60.0576L37.6503 60.0548C39.316 59.4921 41.1201 59.4944 42.7846 60.0615C43.5204 60.3184 44.1837 60.7497 44.7179 61.3191C45.2524 61.8888 45.6418 62.5797 45.8528 63.333L45.8567 63.3467L45.8615 63.3602C46.0761 63.9611 46.1282 64.6084 46.0125 65.236C45.8968 65.8636 45.6174 66.4491 45.203 66.933L45.2025 66.9335C44.7849 67.4229 44.2419 67.7882 43.6323 67.9901C43.1411 68.1448 42.6236 68.1971 42.1114 68.1438C41.5986 68.0905 41.1021 67.9325 40.6524 67.6794C39.8183 67.2039 39.1873 66.4374 38.8796 65.5254C38.6287 64.7341 38.6993 63.8722 39.1268 62.8569C39.2581 62.5556 39.4423 62.2805 39.6707 62.0447L39.2189 61.3857C38.6273 61.6382 38.0559 61.9361 37.5101 62.277C36.5095 62.879 35.7544 63.8176 35.379 64.9255L35.3777 64.9295C35.0025 66.0751 34.9946 67.3099 35.355 68.4601L35.4373 68.7229L35.7117 68.7442C38.6816 68.9752 41.5525 69.9205 44.0815 71.5001C47.8067 73.9762 50.2523 77.176 51.496 81.0835C52.7574 85.0468 52.5668 89.1569 50.9503 93.2784C48.4987 98.7168 44.5062 102.341 39.0013 104.104C35.4467 105.243 31.6961 105.336 27.7017 104.313L26.9883 104.131L27.2118 104.833C27.6838 106.316 29.2843 106.97 31.5958 107.103L31.5973 107.103C33.6068 107.212 37.0197 106.933 41.8592 106.181L41.861 106.181C44.7776 105.714 46.8073 105.526 47.9807 105.599L47.9907 105.6L48.0008 105.6C50.0722 105.625 52.1242 106.004 54.069 106.72C56.8559 107.971 58.5361 109.724 59.2447 111.951C59.8496 113.851 59.7537 115.931 58.9865 118.192C58.2241 120.298 57.0197 122.216 55.4549 123.815L55.4498 123.82L55.4449 123.825C52.8359 126.688 49.2636 128.822 44.7745 130.26C41.1674 131.403 37.8668 131.67 34.8101 131.028C31.3147 130.145 29.116 128.173 28.1019 124.987L28.0999 124.981C27.581 123.434 27.5347 121.768 27.9666 120.195C28.5107 118.579 29.5222 117.543 30.9539 117.084L30.9578 117.083C31.6068 116.868 32.2919 116.784 32.9736 116.835C33.6553 116.887 34.3201 117.073 34.9298 117.384C35.5394 117.695 36.0819 118.123 36.526 118.645C36.9701 119.167 37.3069 119.772 37.5169 120.425L37.5175 120.427C37.9021 121.604 37.8265 122.884 37.3065 124.008ZM33.7806 127.622C35.1509 128.351 36.9034 128.632 39.0258 128.427C40.2463 128.368 41.4552 128.16 42.6257 127.808L33.7806 127.622ZM49.0769 124.006C50.6236 122.373 51.1274 120.609 50.5483 118.789C50.1021 117.387 48.8751 116.251 46.9386 115.401C44.6423 114.465 41.4951 114.203 37.4746 114.555C35.5523 114.726 33.6194 114.742 31.6945 114.602C27.2248 114.162 24.494 112.296 23.4714 109.083C22.9307 107.384 22.7948 105.284 23.1093 102.712L49.0769 124.006ZM34.2261 75.4764L34.2263 75.4763L34.2169 75.466C32.4583 73.5345 30.8011 72.6342 29.1643 73.1585C28.0724 73.5082 27.2978 74.5591 26.8019 76.0297L26.8018 76.0297L26.7988 76.0394C25.8432 79.126 26.1603 83.0696 27.6762 87.8323C28.8659 91.5703 30.5208 94.6484 32.6111 96.9346L32.617 96.941L32.6231 96.9472C34.2987 98.6297 35.8744 99.4808 37.3878 98.9961C38.9081 98.5092 39.7311 96.7987 40.0857 94.3369C40.5133 91.5805 40.1161 88.2284 38.8509 84.2531C37.7383 80.7574 36.1883 77.7847 34.2261 75.4764Z" fill="#5C59ED" stroke="#26103D" stroke-width="0.815508"/>
<path d="M69.2578 79.3248C70.5611 83.4195 72.2378 87.0018 74.3381 89.9909L74.3381 89.991L74.3432 89.998C75.5894 91.6928 76.7833 92.9203 77.929 93.6474C79.0822 94.3792 80.2189 94.6217 81.3042 94.2753L81.3046 94.2751C83.0206 93.7255 83.9691 91.7827 84.3309 88.9119L84.4108 88.2782L84.3917 88.2842C84.7469 84.6279 84.1224 80.2184 82.489 75.0863C81.0897 70.69 79.2912 66.9391 77.0297 63.8678L77.0298 63.8677L77.0248 63.8613C75.8167 62.2875 74.6664 61.1475 73.5705 60.4732C72.4681 59.795 71.3874 59.57 70.3632 59.898C69.1036 60.3014 68.2488 61.3773 67.755 62.9804C67.263 64.5777 67.1078 66.7562 67.2755 69.4959L67.2754 69.4959L67.2763 69.5064C67.5673 72.8435 68.2321 76.137 69.2578 79.3248ZM69.2578 79.3248C69.2577 79.3246 69.2576 79.3244 69.2576 79.3242L69.6459 79.1998M69.2578 79.3248C69.2578 79.325 69.2579 79.3252 69.258 79.3254L69.6459 79.1998M69.6459 79.1998C68.6294 76.0408 67.9707 72.7772 67.6823 69.4704L81.181 93.8866C79.3062 94.485 77.1365 93.1081 74.6716 89.7558C72.6001 86.8079 70.9397 83.2649 69.6459 79.1998ZM55.1734 83.8352L55.1733 83.8351C53.9316 79.9382 53.7986 75.7711 54.7889 71.8027C55.7791 67.8348 57.8531 64.223 60.7777 61.3735C63.1769 59.0693 66.0765 57.3552 69.2482 56.3663L69.2484 56.3662C71.8291 55.5596 74.5296 55.2077 77.23 55.3264C82.3082 55.6546 87.1131 57.7517 90.8147 61.2558C94.5174 64.7608 96.8836 69.4533 97.5043 74.5225C98.1249 79.5916 96.9611 84.7187 94.2141 89.0179C91.4673 93.317 87.3099 96.5183 82.4604 98.0688C77.4193 99.6743 72.3678 99.3978 67.1416 97.1915C61.0803 94.402 57.1257 89.9695 55.1734 83.8352Z" fill="#5C59ED" stroke="#26103D" stroke-width="0.815508"/>
<path d="M113.575 65.1305C114.878 69.2252 116.555 72.8076 118.655 75.7967L118.655 75.7967L118.66 75.8038C119.906 77.4986 121.1 78.7261 122.246 79.4531C123.399 80.1849 124.536 80.4275 125.621 80.081L125.622 80.0809C127.332 79.533 128.283 77.5893 128.642 74.7191L128.721 74.0859L128.706 74.0908C129.064 70.4335 128.437 66.0248 126.803 60.893C125.404 56.4969 123.608 52.7449 121.347 49.6735L121.347 49.6735L121.342 49.6669C120.133 48.0934 118.982 46.9536 117.886 46.2794C116.784 45.6013 115.704 45.376 114.68 45.7038C113.419 46.1076 112.565 47.1834 112.071 48.7866C111.579 50.3839 111.423 52.5623 111.59 55.3024L111.59 55.3024L111.591 55.3134C111.884 58.6499 112.55 61.9428 113.575 65.1305ZM113.575 65.1305C113.575 65.1304 113.575 65.1302 113.575 65.13L113.963 65.0056M113.575 65.1305C113.575 65.1307 113.575 65.1309 113.575 65.1311L113.963 65.0056M113.963 65.0056C112.947 61.8466 112.287 58.5834 111.997 55.277L125.498 79.6924C123.623 80.2907 121.453 78.9139 118.989 75.5616C116.917 72.6137 115.257 69.0707 113.963 65.0056ZM99.4876 69.6419L99.4875 69.6417C98.246 65.7452 98.1127 61.5786 99.1026 57.6104C100.092 53.6428 102.166 50.031 105.089 47.1811C107.489 44.8765 110.39 43.1621 113.562 42.1729L113.563 42.1728C116.143 41.3665 118.844 41.0147 121.544 41.133C126.623 41.4613 131.428 43.5586 135.129 47.063C138.832 50.5683 141.198 55.2611 141.819 60.3306C142.439 65.4 141.275 70.5273 138.527 74.8265C135.78 79.1255 131.622 82.3264 126.772 83.8763C121.731 85.4819 116.679 85.2054 111.456 82.9982C105.394 80.2088 101.44 75.7762 99.4876 69.6419Z" fill="#5C59ED" stroke="#26103D" stroke-width="0.815508"/>
<path d="M164.199 5.9699L171.076 3.76721L183.905 44.0744L183.906 44.0757C185.236 48.208 185.187 52.6628 183.764 56.7638L183.761 56.7726L183.759 56.7815C183.2 58.6627 182.309 60.4276 181.127 61.9916L181.122 61.9987L181.117 62.006C178.543 65.7368 174.805 68.5016 170.492 69.864L170.487 69.8657C169.159 70.3054 167.785 70.593 166.393 70.723C158.671 71.0192 152.696 68.6034 148.426 63.3717C146.493 60.9236 145.029 58.137 144.108 55.1534L144.108 55.1534L144.106 55.1469C142.492 50.2085 142.664 44.8577 144.591 40.0342C147.135 34.0266 151.235 30.1069 156.972 28.2695L162.412 26.5269L162.801 26.4025L162.677 26.0139L159.242 15.2203C158.959 14.2874 158.862 13.3077 158.958 12.3374C159.054 11.3662 159.34 10.4237 159.8 9.56406C160.26 8.70438 160.885 7.94447 161.638 7.32808C162.392 6.71169 163.26 6.25093 164.192 5.97224L164.192 5.97231L164.199 5.9699ZM172.211 62.1265L172.154 62.0886L172.211 62.1066C172.87 60.0034 172.785 57.5998 171.937 54.9328L164.272 30.8507L164.148 30.4622L163.76 30.5865C160.279 31.7014 157.964 33.3187 157.069 35.4843C156.351 37.0936 156.127 39.18 156.35 41.7077C156.572 44.2423 157.246 47.2518 158.352 50.7266C160.269 56.7496 162.55 60.9909 165.23 63.374C166.717 64.7735 168.203 65.3089 169.726 64.821L169.727 64.8207C170.864 64.4528 171.668 63.4904 172.211 62.1265Z" fill="#5C59ED" stroke="#26103D" stroke-width="0.815508"/>
<path d="M69.3648 154.903C68.8827 155.134 68.3874 155.335 67.8813 155.507C65.8855 156.145 63.8586 155.926 61.7907 154.85C60.1532 153.902 58.9256 152.376 58.3473 150.57C57.8125 148.796 57.9914 146.883 58.8454 145.24C59.6995 143.597 61.1612 142.355 62.917 141.781C64.9005 141.146 67.0039 141.404 69.2539 142.611C70.8486 143.681 71.9963 145.282 72.7045 147.507C74.2657 152.412 74.6924 158.296 74.0087 165.096C72.6219 178.481 68.2396 186.149 61.0495 188.452L61.0459 188.453C58.7618 189.208 56.2765 189.063 54.0947 188.047C52.07 187.095 50.2976 185.399 48.7111 183.09L30.5083 152.3C33.6186 151.304 35.9641 150.553 37.5538 150.052C38.39 149.788 39.0147 149.594 39.4308 149.47C39.6397 149.408 39.7918 149.365 39.8904 149.34C39.9017 149.337 39.9119 149.334 39.921 149.332L40.0104 149.319C41.0618 149.163 42.1339 149.228 43.1592 149.508C45.4017 150.285 47.1854 151.49 48.5073 153.237C48.5562 153.324 48.6908 153.561 48.911 153.948C49.9329 155.743 52.7977 160.778 57.4876 169.116C57.9818 169.996 58.4327 170.799 58.8406 171.526C60.5815 174.627 61.5392 176.333 61.7399 176.659L61.7467 176.67L61.7542 176.68C62.3298 177.493 62.9079 178.087 63.4876 178.439C64.0763 178.797 64.6853 178.913 65.2758 178.724C65.5464 178.637 65.7835 178.436 65.9922 178.195C66.2061 177.947 66.4218 177.621 66.6411 177.227C67.08 176.438 67.5602 175.329 68.0861 173.919L68.0861 173.919L68.0883 173.913C70.2158 167.924 70.8527 161.504 69.9436 155.212L69.8644 154.663L69.3648 154.903Z" fill="#5C59ED" stroke="#26103D" stroke-width="0.815508"/>
<path d="M74.8089 117.993L74.8111 117.992C76.3562 117.488 78.024 117.508 79.5567 118.05C81.9075 119.027 83.3953 120.571 84.1071 122.807C84.6279 124.449 84.5463 126.224 83.8775 127.811C82.8455 130.001 81.3409 131.418 79.2911 132.074C77.5074 132.642 75.5763 132.516 73.8804 131.722C71.8982 130.694 70.6126 129.208 70.0122 127.323C69.481 125.632 69.5716 123.807 70.2672 122.179C71.2968 119.993 72.815 118.632 74.8089 117.993ZM83.151 168.633L83.151 168.633L83.1497 168.629L73.5634 138.51L80.6112 136.252C82.4873 135.651 84.4356 135.837 86.4021 136.8C86.9289 137.139 87.4318 137.514 87.9072 137.923L87.9071 137.923L87.9135 137.928C88.8264 138.68 89.5188 139.839 90.0059 141.369L97.2638 164.173C97.8616 166.051 98.6174 167.425 99.5611 168.233C100.533 169.066 101.674 169.272 102.92 168.873C104.095 168.496 105.013 167.497 105.627 166.129C106.544 164.159 107.014 161.7 107.115 158.706C107.915 158.45 108.515 158.258 108.929 158.133C108.991 158.115 109.048 158.097 109.101 158.082C109.018 161.381 108.382 164.644 107.219 167.734C105.361 172.322 102.392 175.204 98.4121 176.479C95.2042 177.506 91.9526 177.208 88.7691 175.548L88.6186 175.47L88.6172 175.47C85.9954 173.974 84.0388 171.53 83.151 168.633Z" fill="#5C59ED" stroke="#26103D" stroke-width="0.815508"/>
<path d="M98.0254 110.557L104.71 108.416L110.647 127.072L110.81 127.582L111.258 127.289C112.805 126.277 114.48 125.477 116.238 124.91C120.797 123.449 125.431 123.663 130.1 125.581C132.096 126.404 133.953 127.533 135.606 128.926C138.753 131.68 141.087 135.247 142.354 139.24L142.354 139.24C143.611 143.19 143.955 146.955 143.398 150.54C142.384 156.353 139.009 161.111 133.24 164.87L133.231 164.876L133.222 164.882C132.467 165.434 131.173 165.986 129.363 166.566C123.984 168.289 118.604 167.79 113.194 164.989C108.341 162.278 105.152 158.393 103.544 153.342L92.9077 119.924L92.9076 119.924C92.333 118.124 92.4796 116.172 93.3158 114.48C94.3226 112.612 96.01 111.206 98.0254 110.557ZM130.054 157.695L130.054 157.695L126.991 161.59L127.112 161.98C127.112 161.98 127.113 161.98 127.113 161.979C128.608 161.514 129.555 159.96 130.054 157.695Z" fill="#5C59ED" stroke="#26103D" stroke-width="0.815508"/>
<path d="M188.634 132.596C188.139 135.354 187.166 138.003 185.759 140.425L185.753 140.435L185.747 140.444C183.602 143.722 180.865 145.913 177.688 146.93C173.543 148.258 169.874 147.867 166.858 145.607L166.845 145.597L166.833 145.586C165.239 144.178 163.9 142.503 162.874 140.637L162.868 140.625L162.862 140.612C162.711 140.285 162.573 139.989 162.45 139.724C162.311 139.425 162.19 139.165 162.09 138.945C161.903 138.537 161.769 138.233 161.711 138.051L161.564 137.59L162.043 137.523C163.494 137.318 164.925 136.992 166.322 136.548L188.634 132.596ZM188.634 132.596L190.449 132.015C190.046 136.814 188.161 141.372 185.051 145.051L185.05 145.052C182.268 148.37 178.598 150.822 174.473 152.117L174.471 152.118C168.461 154.043 162.645 153.61 156.854 150.862C151.285 147.978 147.665 143.765 145.866 138.115L145.866 138.115L145.865 138.11C144.774 134.836 144.428 131.358 144.85 127.932C145.623 122.774 148.093 118.447 152.278 114.939C154.477 113.142 156.994 111.779 159.698 110.922L159.699 110.921C164.153 109.495 168.263 109.554 172.011 111.149C175.337 112.678 177.552 115.194 178.674 118.719C179.611 121.663 179.13 124.923 177.083 128.527C174.476 132.434 170.889 135.085 166.323 136.547L188.634 132.596ZM166.389 132.304L166.407 132.298L166.485 132.158C167.707 129.982 168.262 127.794 168.105 125.557L168.105 125.557L168.105 125.551C168.065 125.085 167.888 124.318 167.601 123.286C167.31 122.243 166.899 120.898 166.378 119.259C165.725 117.207 164.957 115.687 164.059 114.758C163.607 114.29 163.11 113.961 162.57 113.8C162.025 113.639 161.462 113.656 160.893 113.838C159.283 114.353 158.239 115.998 157.577 118.574C156.939 120.951 157.224 124.161 158.364 128.164L158.364 128.164L158.368 128.176L160.159 133.806C160.395 134.546 160.734 135.12 161.226 135.448C161.737 135.788 162.334 135.811 162.96 135.611L162.961 135.61C163.525 135.428 164.099 135.033 164.675 134.465C165.229 133.919 165.803 133.196 166.389 132.304Z" fill="#5C59ED" stroke="#26103D" stroke-width="0.815508"/>
<path d="M198.243 138.253C197.494 139.511 196.353 140.48 195.007 141.016M198.243 138.253C198.6 137.572 198.817 136.826 198.881 136.059C198.946 135.293 198.858 134.521 198.621 133.789C198.377 133.018 197.98 132.304 197.453 131.692C196.926 131.079 196.281 130.581 195.556 130.226L195.376 130.593C195.38 130.594 195.384 130.596 195.387 130.598M198.243 138.253L197.882 138.064C197.884 138.061 197.886 138.058 197.887 138.054M198.243 138.253L197.893 138.045C197.891 138.048 197.889 138.051 197.887 138.054M195.007 141.016L201.775 138.861C202.318 138.038 202.667 137.101 202.794 136.122C202.921 135.142 202.823 134.147 202.508 133.211L202.894 133.08C202.894 133.08 202.894 133.08 202.894 133.08C202.288 131.283 201.207 129.686 199.765 128.459C198.48 127.265 196.304 125.996 193.332 124.609L193.332 124.609L193.328 124.607C189.426 122.841 186.987 121.521 185.946 120.644L185.934 120.634L185.922 120.625C183.93 119.193 182.449 117.158 181.694 114.819C180.85 112.167 181.382 109.527 183.419 106.802C185.892 103.722 189.22 101.475 193.562 100.085C196.421 99.1691 199.114 98.8323 201.669 99.1196C203.645 99.394 205.149 99.9478 206.224 100.788L206.224 100.788L206.231 100.793C207.348 101.631 208.147 102.485 208.592 103.376L206.406 104.077C206.388 104.047 206.367 104.012 206.344 103.971L206.316 103.92L206.275 103.879C205.128 102.743 203.639 102.088 201.715 101.937C200.619 101.823 199.51 101.939 198.46 102.278C197.183 102.665 196.061 103.45 195.259 104.519L195.252 104.528L195.247 104.536C194.304 105.936 194.184 107.513 194.735 109.244L194.735 109.244L194.736 109.249C195.316 110.993 196.338 112.556 197.702 113.785C199.177 115.179 201.453 116.556 204.56 117.911C208.395 119.694 210.923 121.056 212.13 122.022L212.13 122.022L212.14 122.03C214.083 123.482 215.533 125.499 216.295 127.806C216.836 129.499 216.793 131.326 216.173 132.991L216.168 133.005L216.164 133.02C215.801 134.274 215.117 135.411 214.18 136.318L214.164 136.333L214.15 136.35C211.846 139.108 208.541 141.221 204.183 142.617L204.178 142.619C201.542 143.506 198.751 143.837 195.982 143.592C193.902 143.379 192.233 142.785 190.958 141.85C189.686 140.916 188.783 139.624 188.256 137.97C187.629 136 187.713 134.284 188.458 132.734C189.135 131.607 190.213 130.779 191.474 130.417L191.474 130.417L191.482 130.414C192.765 130.016 194.147 130.081 195.387 130.598M195.007 141.016C194.853 140.968 194.702 140.912 194.553 140.849L194.395 141.225L194.507 141.617C194.681 141.567 194.853 141.51 195.022 141.447M195.007 141.016L195.022 141.447M195.387 130.598C196.058 130.928 196.655 131.391 197.144 131.958C197.635 132.529 198.005 133.194 198.232 133.912L198.233 133.915C198.453 134.595 198.535 135.313 198.475 136.026C198.415 136.734 198.216 137.424 197.887 138.054M195.387 130.598L195.022 141.447M195.022 141.447C196.137 141.766 197.33 141.73 198.432 141.334M198.432 141.334L198.557 141.723C198.559 141.722 198.561 141.721 198.563 141.721M198.432 141.334L198.57 141.718C198.568 141.719 198.565 141.72 198.563 141.721M198.432 141.334L198.563 141.721M198.563 141.721C197.157 142.224 195.613 142.182 194.236 141.601L193.173 141.153L194.282 140.833C195.791 140.398 197.08 139.405 197.887 138.054" fill="#5C59ED" stroke="#26103D" stroke-width="0.815508"/>
</g>
<defs>
<clipPath id="clip0_107_616">
<rect width="190.584" height="146.781" fill="white" transform="matrix(0.952344 -0.305025 0.303286 0.9529 0 58.1329)"/>
</clipPath>
</defs>
</svg>
