<svg width="207" height="38" viewBox="0 0 207 38" fill="none" xmlns="http://www.w3.org/2000/svg">
<g clip-path="url(#clip0_107_822)">
<mask id="mask0_107_822" style="mask-type:luminance" maskUnits="userSpaceOnUse" x="0" y="0" width="38" height="38">
<path d="M37.6782 0.160889H0V37.8391H37.6782V0.160889Z" fill="white"/>
</mask>
<g mask="url(#mask0_107_822)">
<path d="M26.6628 29.606C24.699 31.0566 22.3713 31.9336 19.9384 32.1395C17.5057 32.3452 15.0637 31.8716 12.8842 30.7712C10.7048 29.671 8.87354 27.9874 7.59448 25.9079C6.3154 23.8283 5.63874 21.4346 5.63981 18.9931C5.6409 16.5517 6.31969 14.1585 7.60062 12.0801C8.88153 10.0017 10.7142 8.31966 12.8947 7.22136C15.0751 6.12306 17.5176 5.65159 19.9501 5.8595C22.3828 6.06739 24.7098 6.94648 26.6723 8.39886L30.3251 4.06587C27.537 1.92115 24.2041 0.599849 20.7038 0.251574C17.2036 -0.0967013 13.6757 0.541957 10.5197 2.09524C7.36362 3.64852 4.70549 6.05439 2.84622 9.04042C0.986965 12.0265 0.000844051 15.4734 -0.000486932 18.991C-0.00181792 22.5086 0.981695 25.9561 2.8387 28.9436C4.69569 31.9311 7.352 34.339 10.5069 35.8947C13.6617 37.4502 17.1891 38.0917 20.6897 37.746C24.1902 37.4003 27.5242 36.0816 30.3138 33.939L26.6628 29.606Z" fill="black"/>
<path d="M27.9591 28.5118L31.6101 32.8448C33.523 31.0812 35.0499 28.9407 36.0946 26.558C37.1392 24.1752 37.6789 21.6018 37.6797 19.0001C37.6806 16.3984 37.1426 13.8247 36.0997 11.4412C35.0565 9.0577 33.5311 6.91609 31.6195 5.15131L27.9648 9.48429C29.2509 10.7126 30.2748 12.189 30.9743 13.8242C31.6736 15.4594 32.0344 17.2195 32.0344 18.998C32.0344 20.7766 31.6736 22.5366 30.9743 24.1718C30.2748 25.807 29.2509 27.2835 27.9648 28.5118H27.9591Z" fill="#6A0DAD"/>
</g>
</g>
<path d="M44.0834 32.1496V5.39813H51.9204V15.6089H59.2677V5.39813H67.1047V32.1496H59.2677V21.7881H51.9204V32.1496H44.0834Z" fill="#6A0DAD"/>
<path d="M79.5273 32.6018C72.7829 32.6018 68.3369 28.4572 68.3369 22.1649C68.3369 15.8727 72.7829 11.7281 79.5273 11.7281C86.2341 11.7281 90.6801 15.8727 90.6801 22.1649C90.6801 28.4572 86.2341 32.6018 79.5273 32.6018ZM76.2493 22.1649C76.2493 25.3676 77.4174 27.1384 79.5273 27.1384C81.6373 27.1384 82.7677 25.3676 82.7677 22.1649C82.7677 18.9623 81.6373 17.1914 79.5273 17.1914C77.4174 17.1914 76.2493 18.9623 76.2493 22.1649Z" fill="#6A0DAD"/>
<path d="M102.407 32.6018C95.6621 32.6018 91.2161 28.4572 91.2161 22.1649C91.2161 15.8727 95.6621 11.7281 102.407 11.7281C109.113 11.7281 113.559 15.8727 113.559 22.1649C113.559 28.4572 109.113 32.6018 102.407 32.6018ZM99.1285 22.1649C99.1285 25.3676 100.297 27.1384 102.407 27.1384C104.516 27.1384 105.647 25.3676 105.647 22.1649C105.647 18.9623 104.516 17.1914 102.407 17.1914C100.297 17.1914 99.1285 18.9623 99.1285 22.1649Z" fill="#6A0DAD"/>
<path d="M136.062 5.39813V32.1496H128.488L128.375 29.2484C127.245 31.3961 125.21 32.6018 122.535 32.6018C117.223 32.6018 114.095 28.3818 114.095 22.1649C114.095 15.948 117.223 11.7281 122.535 11.7281C125.022 11.7281 127.057 12.8961 128.3 15.0814V5.39813H136.062ZM121.97 22.1649C121.97 24.9908 123.289 27.1761 125.323 27.1761C127.471 27.1761 128.639 24.9908 128.639 22.1649C128.639 19.226 127.433 17.116 125.323 17.116C123.138 17.116 121.97 19.1883 121.97 22.1649Z" fill="#6A0DAD"/>
<path d="M137.587 32.1496V5.39813H145.424V15.6089H152.771V5.39813H160.608V32.1496H152.771V21.7881H145.424V32.1496H137.587Z" fill="#6A0DAD"/>
<path d="M182.947 32.1496H175.977L175.826 29.2107C174.696 31.7352 172.548 32.6018 170.024 32.6018C165.879 32.6018 163.053 30.002 163.053 25.0285V12.1802H170.815V22.3156C170.815 25.1038 171.079 26.6863 172.887 26.6863C174.621 26.6863 175.186 25.1038 175.186 22.3156V12.1802H182.947V32.1496Z" fill="#6A0DAD"/>
<path d="M185.034 5.39813H192.795V15.0814C194.039 12.8961 196.073 11.7281 198.56 11.7281C203.873 11.7281 207 15.948 207 22.1649C207 28.3818 203.873 32.6018 198.56 32.6018C195.885 32.6018 193.85 31.3961 192.72 29.2484L192.607 32.1496H185.034V5.39813ZM192.456 22.1649C192.456 24.9908 193.624 27.1761 195.772 27.1761C197.806 27.1761 199.125 24.9908 199.125 22.1649C199.125 19.1883 197.957 17.116 195.772 17.116C193.662 17.116 192.456 19.226 192.456 22.1649Z" fill="#6A0DAD"/>
<defs>
<clipPath id="clip0_107_822">
<rect width="37.6782" height="37.6782" fill="white" transform="translate(0 0.160889)"/>
</clipPath>
</defs>
</svg>
