<svg width="33" height="32" viewBox="0 0 33 32" fill="none" xmlns="http://www.w3.org/2000/svg">
<path fill-rule="evenodd" clip-rule="evenodd" d="M1.30457 2.98283C1.30457 2.92493 1.30685 2.86931 1.31142 2.81598L14.18 15.6823L1.31142 28.5508L1.30457 28.384V2.98283ZM4.17999 30.5303C4.40857 30.4861 4.63561 30.4084 4.86114 30.2971L20.7309 22.2354L16.6029 18.1074L4.17999 30.5303ZM19.028 15.6823L23.9469 20.6011L29.8577 17.5977C31.5011 16.7634 31.5011 14.6034 29.8577 13.7691L23.9446 10.7657L19.028 15.6823ZM20.7309 9.1314L4.86114 1.06969C4.64645 0.959704 4.41705 0.881185 4.17999 0.836548L16.6029 13.2571L20.7309 9.1314Z" fill="#101828"/>
</svg>
