<svg width="116" height="116" viewBox="0 0 116 116" fill="none" xmlns="http://www.w3.org/2000/svg">
<path d="M5.19198 0.600006H0.599976V5.19201H5.19198V0.600006Z" fill="#1D2939"/>
<path d="M9.78398 0.600006H5.19198V5.19201H9.78398V0.600006Z" fill="#1D2939"/>
<path d="M14.376 0.600006H9.78398V5.19201H14.376V0.600006Z" fill="#1D2939"/>
<path d="M18.968 0.600006H14.376V5.19201H18.968V0.600006Z" fill="#1D2939"/>
<path d="M23.56 0.600006H18.968V5.19201H23.56V0.600006Z" fill="#1D2939"/>
<path d="M28.152 0.600006H23.56V5.19201H28.152V0.600006Z" fill="#1D2939"/>
<path d="M32.744 0.600006H28.152V5.19201H32.744V0.600006Z" fill="#1D2939"/>
<path d="M41.928 0.600006H37.336V5.19201H41.928V0.600006Z" fill="#1D2939"/>
<path d="M46.52 0.600006H41.928V5.19201H46.52V0.600006Z" fill="#1D2939"/>
<path d="M55.704 0.600006H51.112V5.19201H55.704V0.600006Z" fill="#1D2939"/>
<path d="M60.296 0.600006H55.704V5.19201H60.296V0.600006Z" fill="#1D2939"/>
<path d="M69.48 0.600006H64.888V5.19201H69.48V0.600006Z" fill="#1D2939"/>
<path d="M78.664 0.600006H74.072V5.19201H78.664V0.600006Z" fill="#1D2939"/>
<path d="M87.848 0.600006H83.256V5.19201H87.848V0.600006Z" fill="#1D2939"/>
<path d="M92.44 0.600006H87.848V5.19201H92.44V0.600006Z" fill="#1D2939"/>
<path d="M97.032 0.600006H92.44V5.19201H97.032V0.600006Z" fill="#1D2939"/>
<path d="M101.624 0.600006H97.032V5.19201H101.624V0.600006Z" fill="#1D2939"/>
<path d="M106.216 0.600006H101.624V5.19201H106.216V0.600006Z" fill="#1D2939"/>
<path d="M110.808 0.600006H106.216V5.19201H110.808V0.600006Z" fill="#1D2939"/>
<path d="M115.4 0.600006H110.808V5.19201H115.4V0.600006Z" fill="#1D2939"/>
<path d="M5.19198 5.19201H0.599976V9.78401H5.19198V5.19201Z" fill="#1D2939"/>
<path d="M32.744 5.19201H28.152L28.152 9.78401H32.744V5.19201Z" fill="#1D2939"/>
<path d="M51.112 5.19201H46.52V9.78401H51.112V5.19201Z" fill="#1D2939"/>
<path d="M55.704 5.19201H51.112V9.78401H55.704V5.19201Z" fill="#1D2939"/>
<path d="M60.296 5.19201H55.704V9.78401H60.296V5.19201Z" fill="#1D2939"/>
<path d="M64.888 5.19201H60.296V9.78401H64.888V5.19201Z" fill="#1D2939"/>
<path d="M69.48 5.19201H64.888V9.78401H69.48V5.19201Z" fill="#1D2939"/>
<path d="M78.664 5.19201H74.072V9.78401H78.664V5.19201Z" fill="#1D2939"/>
<path d="M87.848 5.19201H83.256V9.78401H87.848V5.19201Z" fill="#1D2939"/>
<path d="M115.4 5.19201H110.808V9.78401H115.4V5.19201Z" fill="#1D2939"/>
<path d="M5.19198 9.78401H0.599976V14.376H5.19198V9.78401Z" fill="#1D2939"/>
<path d="M14.376 9.78401H9.78398V14.376H14.376V9.78401Z" fill="#1D2939"/>
<path d="M18.968 9.78401H14.376V14.376H18.968V9.78401Z" fill="#1D2939"/>
<path d="M23.56 9.78401H18.968V14.376H23.56V9.78401Z" fill="#1D2939"/>
<path d="M32.744 9.78401H28.152V14.376H32.744V9.78401Z" fill="#1D2939"/>
<path d="M41.928 9.78401H37.336V14.376H41.928V9.78401Z" fill="#1D2939"/>
<path d="M46.52 9.78401H41.928V14.376H46.52V9.78401Z" fill="#1D2939"/>
<path d="M51.112 9.78401H46.52V14.376H51.112V9.78401Z" fill="#1D2939"/>
<path d="M64.888 9.78401H60.296V14.376H64.888V9.78401Z" fill="#1D2939"/>
<path d="M69.48 9.78401H64.888V14.376H69.48V9.78401Z" fill="#1D2939"/>
<path d="M74.072 9.78401H69.48V14.376H74.072V9.78401Z" fill="#1D2939"/>
<path d="M78.664 9.78401H74.072V14.376H78.664V9.78401Z" fill="#1D2939"/>
<path d="M87.848 9.78401H83.256V14.376H87.848V9.78401Z" fill="#1D2939"/>
<path d="M97.032 9.78401H92.44V14.376H97.032V9.78401Z" fill="#1D2939"/>
<path d="M101.624 9.78401H97.032V14.376H101.624V9.78401Z" fill="#1D2939"/>
<path d="M106.216 9.78401H101.624V14.376H106.216V9.78401Z" fill="#1D2939"/>
<path d="M115.4 9.78401H110.808V14.376H115.4V9.78401Z" fill="#1D2939"/>
<path d="M5.19198 14.376H0.599976V18.968H5.19198V14.376Z" fill="#1D2939"/>
<path d="M14.376 14.376H9.78398V18.968H14.376V14.376Z" fill="#1D2939"/>
<path d="M18.968 14.376H14.376V18.968H18.968V14.376Z" fill="#1D2939"/>
<path d="M23.56 14.376H18.968V18.968H23.56V14.376Z" fill="#1D2939"/>
<path d="M32.744 14.376H28.152V18.968H32.744V14.376Z" fill="#1D2939"/>
<path d="M51.112 14.376H46.52V18.968H51.112V14.376Z" fill="#1D2939"/>
<path d="M60.296 14.376H55.704V18.968H60.296V14.376Z" fill="#1D2939"/>
<path d="M69.48 14.376H64.888V18.968H69.48V14.376Z" fill="#1D2939"/>
<path d="M87.848 14.376H83.256V18.968H87.848V14.376Z" fill="#1D2939"/>
<path d="M97.032 14.376H92.44V18.968H97.032V14.376Z" fill="#1D2939"/>
<path d="M101.624 14.376H97.032V18.968H101.624V14.376Z" fill="#1D2939"/>
<path d="M106.216 14.376H101.624V18.968H106.216V14.376Z" fill="#1D2939"/>
<path d="M115.4 14.376H110.808V18.968H115.4V14.376Z" fill="#1D2939"/>
<path d="M5.19198 18.968H0.599976V23.56H5.19198V18.968Z" fill="#1D2939"/>
<path d="M14.376 18.968H9.78398V23.56H14.376V18.968Z" fill="#1D2939"/>
<path d="M18.968 18.968H14.376V23.56H18.968V18.968Z" fill="#1D2939"/>
<path d="M23.56 18.968H18.968V23.56H23.56V18.968Z" fill="#1D2939"/>
<path d="M32.744 18.968H28.152V23.56H32.744V18.968Z" fill="#1D2939"/>
<path d="M46.52 18.968H41.928V23.56H46.52V18.968Z" fill="#1D2939"/>
<path d="M69.48 18.968H64.888V23.56H69.48V18.968Z" fill="#1D2939"/>
<path d="M74.072 18.968H69.48V23.56H74.072V18.968Z" fill="#1D2939"/>
<path d="M87.848 18.968H83.256V23.56H87.848V18.968Z" fill="#1D2939"/>
<path d="M97.032 18.968H92.44V23.56H97.032V18.968Z" fill="#1D2939"/>
<path d="M101.624 18.968H97.032V23.56H101.624V18.968Z" fill="#1D2939"/>
<path d="M106.216 18.968H101.624V23.56H106.216V18.968Z" fill="#1D2939"/>
<path d="M115.4 18.968H110.808V23.56H115.4V18.968Z" fill="#1D2939"/>
<path d="M5.19198 23.56H0.599976V28.152H5.19198V23.56Z" fill="#1D2939"/>
<path d="M32.744 23.56H28.152V28.152H32.744V23.56Z" fill="#1D2939"/>
<path d="M51.112 23.56H46.52V28.152H51.112V23.56Z" fill="#1D2939"/>
<path d="M64.888 23.56H60.296V28.152H64.888V23.56Z" fill="#1D2939"/>
<path d="M87.848 23.56H83.256V28.152H87.848V23.56Z" fill="#1D2939"/>
<path d="M115.4 23.56H110.808V28.152H115.4V23.56Z" fill="#1D2939"/>
<path d="M5.19198 28.152H0.599976V32.744H5.19198V28.152Z" fill="#1D2939"/>
<path d="M9.78398 28.152L5.19198 28.152V32.744H9.78398V28.152Z" fill="#1D2939"/>
<path d="M14.376 28.152H9.78398V32.744H14.376V28.152Z" fill="#1D2939"/>
<path d="M18.968 28.152H14.376V32.744H18.968V28.152Z" fill="#1D2939"/>
<path d="M23.56 28.152H18.968V32.744H23.56V28.152Z" fill="#1D2939"/>
<path d="M28.152 28.152L23.56 28.152V32.744H28.152L28.152 28.152Z" fill="#1D2939"/>
<path d="M32.744 28.152H28.152L28.152 32.744H32.744V28.152Z" fill="#1D2939"/>
<path d="M41.928 28.152H37.336V32.744H41.928V28.152Z" fill="#1D2939"/>
<path d="M51.112 28.152H46.52V32.744H51.112V28.152Z" fill="#1D2939"/>
<path d="M60.296 28.152L55.704 28.152V32.744H60.296V28.152Z" fill="#1D2939"/>
<path d="M69.48 28.152L64.888 28.152V32.744H69.48V28.152Z" fill="#1D2939"/>
<path d="M78.664 28.152H74.072V32.744H78.664V28.152Z" fill="#1D2939"/>
<path d="M87.848 28.152H83.256V32.744H87.848V28.152Z" fill="#1D2939"/>
<path d="M92.44 28.152L87.848 28.152V32.744H92.44V28.152Z" fill="#1D2939"/>
<path d="M97.032 28.152H92.44V32.744H97.032V28.152Z" fill="#1D2939"/>
<path d="M101.624 28.152H97.032V32.744H101.624V28.152Z" fill="#1D2939"/>
<path d="M106.216 28.152H101.624V32.744H106.216V28.152Z" fill="#1D2939"/>
<path d="M110.808 28.152L106.216 28.152V32.744H110.808V28.152Z" fill="#1D2939"/>
<path d="M115.4 28.152H110.808V32.744H115.4V28.152Z" fill="#1D2939"/>
<path d="M41.928 32.744H37.336V37.336H41.928V32.744Z" fill="#1D2939"/>
<path d="M74.072 32.744H69.48L69.48 37.336H74.072V32.744Z" fill="#1D2939"/>
<path d="M5.19198 37.336H0.599976V41.928H5.19198V37.336Z" fill="#1D2939"/>
<path d="M14.376 37.336H9.78398V41.928H14.376V37.336Z" fill="#1D2939"/>
<path d="M28.152 37.336H23.56V41.928H28.152V37.336Z" fill="#1D2939"/>
<path d="M32.744 37.336H28.152V41.928H32.744V37.336Z" fill="#1D2939"/>
<path d="M46.52 37.336H41.928V41.928H46.52V37.336Z" fill="#1D2939"/>
<path d="M51.112 37.336H46.52V41.928H51.112V37.336Z" fill="#1D2939"/>
<path d="M55.704 37.336H51.112V41.928H55.704V37.336Z" fill="#1D2939"/>
<path d="M60.296 37.336H55.704V41.928H60.296V37.336Z" fill="#1D2939"/>
<path d="M83.256 37.336H78.664V41.928H83.256V37.336Z" fill="#1D2939"/>
<path d="M87.848 37.336H83.256V41.928H87.848V37.336Z" fill="#1D2939"/>
<path d="M106.216 37.336H101.624V41.928H106.216V37.336Z" fill="#1D2939"/>
<path d="M115.4 37.336H110.808V41.928H115.4V37.336Z" fill="#1D2939"/>
<path d="M5.19198 41.928H0.599976V46.52H5.19198V41.928Z" fill="#1D2939"/>
<path d="M14.376 41.928H9.78398V46.52H14.376V41.928Z" fill="#1D2939"/>
<path d="M18.968 41.928H14.376V46.52H18.968V41.928Z" fill="#1D2939"/>
<path d="M23.56 41.928H18.968V46.52H23.56V41.928Z" fill="#1D2939"/>
<path d="M37.336 41.928H32.744V46.52H37.336V41.928Z" fill="#1D2939"/>
<path d="M46.52 41.928H41.928V46.52H46.52V41.928Z" fill="#1D2939"/>
<path d="M51.112 41.928H46.52V46.52H51.112V41.928Z" fill="#1D2939"/>
<path d="M55.704 41.928H51.112V46.52H55.704V41.928Z" fill="#1D2939"/>
<path d="M60.296 41.928H55.704V46.52H60.296V41.928Z" fill="#1D2939"/>
<path d="M64.888 41.928H60.296V46.52H64.888V41.928Z" fill="#1D2939"/>
<path d="M69.48 41.928H64.888V46.52H69.48V41.928Z" fill="#1D2939"/>
<path d="M74.072 41.928H69.48V46.52H74.072V41.928Z" fill="#1D2939"/>
<path d="M83.256 41.928H78.664V46.52H83.256V41.928Z" fill="#1D2939"/>
<path d="M92.44 41.928H87.848V46.52H92.44V41.928Z" fill="#1D2939"/>
<path d="M101.624 41.928H97.032V46.52H101.624V41.928Z" fill="#1D2939"/>
<path d="M5.19198 46.52H0.599976V51.112H5.19198V46.52Z" fill="#1D2939"/>
<path d="M9.78398 46.52H5.19198V51.112H9.78398V46.52Z" fill="#1D2939"/>
<path d="M18.968 46.52H14.376V51.112H18.968V46.52Z" fill="#1D2939"/>
<path d="M28.152 46.52H23.56V51.112H28.152V46.52Z" fill="#1D2939"/>
<path d="M32.744 46.52H28.152V51.112H32.744V46.52Z" fill="#1D2939"/>
<path d="M55.704 46.52H51.112V51.112H55.704V46.52Z" fill="#1D2939"/>
<path d="M64.888 46.52H60.296V51.112H64.888V46.52Z" fill="#1D2939"/>
<path d="M69.48 46.52H64.888V51.112H69.48V46.52Z" fill="#1D2939"/>
<path d="M74.072 46.52H69.48V51.112H74.072V46.52Z" fill="#1D2939"/>
<path d="M101.624 46.52H97.032V51.112H101.624V46.52Z" fill="#1D2939"/>
<path d="M110.808 46.52H106.216V51.112H110.808V46.52Z" fill="#1D2939"/>
<path d="M115.4 46.52H110.808V51.112H115.4V46.52Z" fill="#1D2939"/>
<path d="M9.78398 51.112H5.19198V55.704H9.78398V51.112Z" fill="#1D2939"/>
<path d="M14.376 51.112H9.78398V55.704H14.376V51.112Z" fill="#1D2939"/>
<path d="M18.968 51.112H14.376V55.704H18.968V51.112Z" fill="#1D2939"/>
<path d="M23.56 51.112H18.968V55.704H23.56V51.112Z" fill="#1D2939"/>
<path d="M28.152 51.112H23.56V55.704H28.152V51.112Z" fill="#1D2939"/>
<path d="M41.928 51.112H37.336V55.704H41.928V51.112Z" fill="#1D2939"/>
<path d="M46.52 51.112H41.928V55.704H46.52V51.112Z" fill="#1D2939"/>
<path d="M69.48 51.112H64.888V55.704H69.48V51.112Z" fill="#1D2939"/>
<path d="M78.664 51.112H74.072V55.704H78.664V51.112Z" fill="#1D2939"/>
<path d="M92.44 51.112H87.848V55.704H92.44V51.112Z" fill="#1D2939"/>
<path d="M106.216 51.112H101.624V55.704H106.216V51.112Z" fill="#1D2939"/>
<path d="M115.4 51.112H110.808V55.704H115.4V51.112Z" fill="#1D2939"/>
<path d="M14.376 55.704H9.78398V60.296H14.376V55.704Z" fill="#1D2939"/>
<path d="M18.968 55.704H14.376V60.296H18.968V55.704Z" fill="#1D2939"/>
<path d="M28.152 55.704H23.56V60.296H28.152V55.704Z" fill="#1D2939"/>
<path d="M32.744 55.704H28.152V60.296H32.744V55.704Z" fill="#1D2939"/>
<path d="M37.336 55.704H32.744V60.296H37.336V55.704Z" fill="#1D2939"/>
<path d="M41.928 55.704H37.336V60.296H41.928V55.704Z" fill="#1D2939"/>
<path d="M55.704 55.704H51.112V60.296H55.704V55.704Z" fill="#1D2939"/>
<path d="M78.664 55.704H74.072V60.296H78.664V55.704Z" fill="#1D2939"/>
<path d="M83.256 55.704H78.664V60.296H83.256V55.704Z" fill="#1D2939"/>
<path d="M87.848 55.704H83.256V60.296H87.848V55.704Z" fill="#1D2939"/>
<path d="M92.44 55.704H87.848V60.296H92.44V55.704Z" fill="#1D2939"/>
<path d="M115.4 55.704H110.808V60.296H115.4V55.704Z" fill="#1D2939"/>
<path d="M5.19198 60.296H0.599976V64.888H5.19198V60.296Z" fill="#1D2939"/>
<path d="M14.376 60.296H9.78398V64.888H14.376V60.296Z" fill="#1D2939"/>
<path d="M28.152 60.296H23.56V64.888H28.152V60.296Z" fill="#1D2939"/>
<path d="M37.336 60.296H32.744V64.888H37.336V60.296Z" fill="#1D2939"/>
<path d="M41.928 60.296H37.336V64.888H41.928V60.296Z" fill="#1D2939"/>
<path d="M51.112 60.296H46.52V64.888H51.112V60.296Z" fill="#1D2939"/>
<path d="M60.296 60.296H55.704V64.888H60.296V60.296Z" fill="#1D2939"/>
<path d="M64.888 60.296H60.296V64.888H64.888V60.296Z" fill="#1D2939"/>
<path d="M74.072 60.296H69.48V64.888H74.072V60.296Z" fill="#1D2939"/>
<path d="M78.664 60.296H74.072V64.888H78.664V60.296Z" fill="#1D2939"/>
<path d="M87.848 60.296H83.256V64.888H87.848V60.296Z" fill="#1D2939"/>
<path d="M97.032 60.296H92.44V64.888H97.032V60.296Z" fill="#1D2939"/>
<path d="M101.624 60.296H97.032V64.888H101.624V60.296Z" fill="#1D2939"/>
<path d="M110.808 60.296H106.216V64.888H110.808V60.296Z" fill="#1D2939"/>
<path d="M115.4 60.296H110.808V64.888H115.4V60.296Z" fill="#1D2939"/>
<path d="M5.19198 64.888H0.599976V69.48H5.19198V64.888Z" fill="#1D2939"/>
<path d="M28.152 64.888H23.56V69.48H28.152V64.888Z" fill="#1D2939"/>
<path d="M32.744 64.888H28.152V69.48H32.744V64.888Z" fill="#1D2939"/>
<path d="M51.112 64.888H46.52V69.48H51.112V64.888Z" fill="#1D2939"/>
<path d="M55.704 64.888H51.112V69.48H55.704V64.888Z" fill="#1D2939"/>
<path d="M60.296 64.888H55.704V69.48H60.296V64.888Z" fill="#1D2939"/>
<path d="M64.888 64.888H60.296V69.48H64.888V64.888Z" fill="#1D2939"/>
<path d="M87.848 64.888H83.256V69.48H87.848V64.888Z" fill="#1D2939"/>
<path d="M92.44 64.888H87.848V69.48H92.44V64.888Z" fill="#1D2939"/>
<path d="M97.032 64.888H92.44V69.48H97.032V64.888Z" fill="#1D2939"/>
<path d="M101.624 64.888H97.032V69.48H101.624V64.888Z" fill="#1D2939"/>
<path d="M5.19198 69.48H0.599976V74.072H5.19198V69.48Z" fill="#1D2939"/>
<path d="M9.78398 69.48L5.19198 69.48V74.072H9.78398V69.48Z" fill="#1D2939"/>
<path d="M18.968 69.48H14.376V74.072H18.968V69.48Z" fill="#1D2939"/>
<path d="M23.56 69.48L18.968 69.48V74.072H23.56V69.48Z" fill="#1D2939"/>
<path d="M37.336 69.48L32.744 69.48V74.072H37.336V69.48Z" fill="#1D2939"/>
<path d="M41.928 69.48H37.336V74.072H41.928V69.48Z" fill="#1D2939"/>
<path d="M46.52 69.48L41.928 69.48V74.072H46.52V69.48Z" fill="#1D2939"/>
<path d="M51.112 69.48H46.52V74.072H51.112V69.48Z" fill="#1D2939"/>
<path d="M60.296 69.48H55.704V74.072H60.296V69.48Z" fill="#1D2939"/>
<path d="M64.888 69.48H60.296V74.072H64.888V69.48Z" fill="#1D2939"/>
<path d="M69.48 69.48L64.888 69.48V74.072H69.48V69.48Z" fill="#1D2939"/>
<path d="M87.848 69.48H83.256V74.072H87.848V69.48Z" fill="#1D2939"/>
<path d="M92.44 69.48H87.848V74.072H92.44V69.48Z" fill="#1D2939"/>
<path d="M97.032 69.48H92.44V74.072H97.032V69.48Z" fill="#1D2939"/>
<path d="M23.56 74.072H18.968V78.664H23.56V74.072Z" fill="#1D2939"/>
<path d="M32.744 74.072H28.152V78.664H32.744V74.072Z" fill="#1D2939"/>
<path d="M41.928 74.072H37.336V78.664H41.928V74.072Z" fill="#1D2939"/>
<path d="M46.52 74.072H41.928V78.664H46.52V74.072Z" fill="#1D2939"/>
<path d="M55.704 74.072H51.112V78.664H55.704V74.072Z" fill="#1D2939"/>
<path d="M64.888 74.072H60.296V78.664H64.888V74.072Z" fill="#1D2939"/>
<path d="M69.48 74.072H64.888V78.664H69.48V74.072Z" fill="#1D2939"/>
<path d="M78.664 74.072H74.072V78.664H78.664V74.072Z" fill="#1D2939"/>
<path d="M83.256 74.072H78.664V78.664H83.256V74.072Z" fill="#1D2939"/>
<path d="M87.848 74.072H83.256V78.664H87.848V74.072Z" fill="#1D2939"/>
<path d="M92.44 74.072H87.848V78.664H92.44V74.072Z" fill="#1D2939"/>
<path d="M97.032 74.072H92.44V78.664H97.032V74.072Z" fill="#1D2939"/>
<path d="M106.216 74.072H101.624V78.664H106.216V74.072Z" fill="#1D2939"/>
<path d="M110.808 74.072H106.216V78.664H110.808V74.072Z" fill="#1D2939"/>
<path d="M115.4 74.072H110.808V78.664H115.4V74.072Z" fill="#1D2939"/>
<path d="M51.112 78.664H46.52V83.256H51.112V78.664Z" fill="#1D2939"/>
<path d="M74.072 78.664H69.48L69.48 83.256H74.072V78.664Z" fill="#1D2939"/>
<path d="M78.664 78.664H74.072V83.256H78.664V78.664Z" fill="#1D2939"/>
<path d="M97.032 78.664H92.44V83.256H97.032V78.664Z" fill="#1D2939"/>
<path d="M101.624 78.664H97.032V83.256H101.624V78.664Z" fill="#1D2939"/>
<path d="M106.216 78.664H101.624V83.256H106.216V78.664Z" fill="#1D2939"/>
<path d="M110.808 78.664H106.216V83.256H110.808V78.664Z" fill="#1D2939"/>
<path d="M5.19198 83.256H0.599976V87.848H5.19198V83.256Z" fill="#1D2939"/>
<path d="M9.78398 83.256H5.19198V87.848H9.78398V83.256Z" fill="#1D2939"/>
<path d="M14.376 83.256H9.78398V87.848H14.376V83.256Z" fill="#1D2939"/>
<path d="M18.968 83.256H14.376V87.848H18.968V83.256Z" fill="#1D2939"/>
<path d="M23.56 83.256H18.968V87.848H23.56V83.256Z" fill="#1D2939"/>
<path d="M28.152 83.256H23.56V87.848H28.152V83.256Z" fill="#1D2939"/>
<path d="M32.744 83.256H28.152V87.848H32.744V83.256Z" fill="#1D2939"/>
<path d="M60.296 83.256H55.704V87.848H60.296V83.256Z" fill="#1D2939"/>
<path d="M64.888 83.256H60.296V87.848H64.888V83.256Z" fill="#1D2939"/>
<path d="M74.072 83.256H69.48V87.848H74.072V83.256Z" fill="#1D2939"/>
<path d="M78.664 83.256H74.072V87.848H78.664V83.256Z" fill="#1D2939"/>
<path d="M87.848 83.256H83.256V87.848H87.848V83.256Z" fill="#1D2939"/>
<path d="M97.032 83.256H92.44V87.848H97.032V83.256Z" fill="#1D2939"/>
<path d="M110.808 83.256H106.216V87.848H110.808V83.256Z" fill="#1D2939"/>
<path d="M5.19198 87.848H0.599976V92.44H5.19198V87.848Z" fill="#1D2939"/>
<path d="M32.744 87.848H28.152L28.152 92.44H32.744V87.848Z" fill="#1D2939"/>
<path d="M41.928 87.848H37.336V92.44H41.928V87.848Z" fill="#1D2939"/>
<path d="M46.52 87.848H41.928V92.44H46.52V87.848Z" fill="#1D2939"/>
<path d="M51.112 87.848H46.52V92.44H51.112V87.848Z" fill="#1D2939"/>
<path d="M60.296 87.848H55.704V92.44H60.296V87.848Z" fill="#1D2939"/>
<path d="M69.48 87.848H64.888V92.44H69.48L69.48 87.848Z" fill="#1D2939"/>
<path d="M74.072 87.848H69.48L69.48 92.44H74.072V87.848Z" fill="#1D2939"/>
<path d="M78.664 87.848H74.072V92.44H78.664V87.848Z" fill="#1D2939"/>
<path d="M97.032 87.848H92.44V92.44H97.032V87.848Z" fill="#1D2939"/>
<path d="M110.808 87.848H106.216V92.44H110.808V87.848Z" fill="#1D2939"/>
<path d="M115.4 87.848H110.808V92.44H115.4V87.848Z" fill="#1D2939"/>
<path d="M5.19198 92.44H0.599976V97.032H5.19198V92.44Z" fill="#1D2939"/>
<path d="M14.376 92.44H9.78398V97.032H14.376V92.44Z" fill="#1D2939"/>
<path d="M18.968 92.44H14.376V97.032H18.968V92.44Z" fill="#1D2939"/>
<path d="M23.56 92.44H18.968V97.032H23.56V92.44Z" fill="#1D2939"/>
<path d="M32.744 92.44H28.152V97.032H32.744V92.44Z" fill="#1D2939"/>
<path d="M51.112 92.44H46.52V97.032H51.112V92.44Z" fill="#1D2939"/>
<path d="M69.48 92.44H64.888V97.032H69.48V92.44Z" fill="#1D2939"/>
<path d="M78.664 92.44H74.072V97.032H78.664V92.44Z" fill="#1D2939"/>
<path d="M83.256 92.44H78.664V97.032H83.256V92.44Z" fill="#1D2939"/>
<path d="M87.848 92.44H83.256V97.032H87.848V92.44Z" fill="#1D2939"/>
<path d="M92.44 92.44H87.848V97.032H92.44V92.44Z" fill="#1D2939"/>
<path d="M97.032 92.44H92.44V97.032H97.032V92.44Z" fill="#1D2939"/>
<path d="M101.624 92.44H97.032V97.032H101.624V92.44Z" fill="#1D2939"/>
<path d="M106.216 92.44H101.624V97.032H106.216V92.44Z" fill="#1D2939"/>
<path d="M115.4 92.44H110.808V97.032H115.4V92.44Z" fill="#1D2939"/>
<path d="M5.19198 97.032H0.599976V101.624H5.19198V97.032Z" fill="#1D2939"/>
<path d="M14.376 97.032H9.78398V101.624H14.376V97.032Z" fill="#1D2939"/>
<path d="M18.968 97.032H14.376V101.624H18.968V97.032Z" fill="#1D2939"/>
<path d="M23.56 97.032H18.968V101.624H23.56V97.032Z" fill="#1D2939"/>
<path d="M32.744 97.032H28.152V101.624H32.744V97.032Z" fill="#1D2939"/>
<path d="M46.52 97.032H41.928V101.624H46.52V97.032Z" fill="#1D2939"/>
<path d="M55.704 97.032H51.112V101.624H55.704V97.032Z" fill="#1D2939"/>
<path d="M60.296 97.032H55.704V101.624H60.296V97.032Z" fill="#1D2939"/>
<path d="M64.888 97.032H60.296V101.624H64.888V97.032Z" fill="#1D2939"/>
<path d="M69.48 97.032H64.888V101.624H69.48V97.032Z" fill="#1D2939"/>
<path d="M74.072 97.032H69.48V101.624H74.072V97.032Z" fill="#1D2939"/>
<path d="M78.664 97.032H74.072V101.624H78.664V97.032Z" fill="#1D2939"/>
<path d="M83.256 97.032H78.664V101.624H83.256V97.032Z" fill="#1D2939"/>
<path d="M87.848 97.032H83.256V101.624H87.848V97.032Z" fill="#1D2939"/>
<path d="M92.44 97.032H87.848V101.624H92.44V97.032Z" fill="#1D2939"/>
<path d="M97.032 97.032H92.44V101.624H97.032V97.032Z" fill="#1D2939"/>
<path d="M101.624 97.032H97.032V101.624H101.624V97.032Z" fill="#1D2939"/>
<path d="M110.808 97.032H106.216V101.624H110.808V97.032Z" fill="#1D2939"/>
<path d="M115.4 97.032H110.808V101.624H115.4V97.032Z" fill="#1D2939"/>
<path d="M5.19198 101.624H0.599976V106.216H5.19198V101.624Z" fill="#1D2939"/>
<path d="M14.376 101.624H9.78398V106.216H14.376V101.624Z" fill="#1D2939"/>
<path d="M18.968 101.624H14.376V106.216H18.968V101.624Z" fill="#1D2939"/>
<path d="M23.56 101.624H18.968V106.216H23.56V101.624Z" fill="#1D2939"/>
<path d="M32.744 101.624H28.152V106.216H32.744V101.624Z" fill="#1D2939"/>
<path d="M41.928 101.624H37.336V106.216H41.928V101.624Z" fill="#1D2939"/>
<path d="M64.888 101.624H60.296V106.216H64.888V101.624Z" fill="#1D2939"/>
<path d="M83.256 101.624H78.664V106.216H83.256V101.624Z" fill="#1D2939"/>
<path d="M87.848 101.624H83.256V106.216H87.848V101.624Z" fill="#1D2939"/>
<path d="M101.624 101.624H97.032V106.216H101.624V101.624Z" fill="#1D2939"/>
<path d="M5.19198 106.216H0.599976V110.808H5.19198V106.216Z" fill="#1D2939"/>
<path d="M32.744 106.216H28.152V110.808H32.744V106.216Z" fill="#1D2939"/>
<path d="M46.52 106.216H41.928V110.808H46.52V106.216Z" fill="#1D2939"/>
<path d="M55.704 106.216H51.112V110.808H55.704V106.216Z" fill="#1D2939"/>
<path d="M97.032 106.216H92.44V110.808H97.032V106.216Z" fill="#1D2939"/>
<path d="M101.624 106.216H97.032V110.808H101.624V106.216Z" fill="#1D2939"/>
<path d="M106.216 106.216H101.624V110.808H106.216V106.216Z" fill="#1D2939"/>
<path d="M5.19198 110.808H0.599976V115.4H5.19198V110.808Z" fill="#1D2939"/>
<path d="M9.78398 110.808H5.19198V115.4H9.78398V110.808Z" fill="#1D2939"/>
<path d="M14.376 110.808H9.78398V115.4H14.376V110.808Z" fill="#1D2939"/>
<path d="M18.968 110.808H14.376V115.4H18.968V110.808Z" fill="#1D2939"/>
<path d="M23.56 110.808H18.968V115.4H23.56V110.808Z" fill="#1D2939"/>
<path d="M28.152 110.808H23.56V115.4H28.152L28.152 110.808Z" fill="#1D2939"/>
<path d="M32.744 110.808H28.152L28.152 115.4H32.744V110.808Z" fill="#1D2939"/>
<path d="M41.928 110.808H37.336V115.4H41.928V110.808Z" fill="#1D2939"/>
<path d="M46.52 110.808H41.928V115.4H46.52V110.808Z" fill="#1D2939"/>
<path d="M51.112 110.808H46.52V115.4H51.112V110.808Z" fill="#1D2939"/>
<path d="M55.704 110.808H51.112V115.4H55.704V110.808Z" fill="#1D2939"/>
<path d="M64.888 110.808H60.296V115.4H64.888V110.808Z" fill="#1D2939"/>
<path d="M69.48 110.808H64.888V115.4H69.48V110.808Z" fill="#1D2939"/>
<path d="M78.664 110.808H74.072V115.4H78.664V110.808Z" fill="#1D2939"/>
<path d="M87.848 110.808H83.256V115.4H87.848V110.808Z" fill="#1D2939"/>
<path d="M97.032 110.808H92.44V115.4H97.032V110.808Z" fill="#1D2939"/>
<path d="M106.216 110.808H101.624V115.4H106.216V110.808Z" fill="#1D2939"/>
<path d="M115.4 110.808H110.808V115.4H115.4V110.808Z" fill="#1D2939"/>
</svg>
