<svg width="249" height="301" viewBox="0 0 249 301" fill="none" xmlns="http://www.w3.org/2000/svg">
<path fill-rule="evenodd" clip-rule="evenodd" d="M43.4167 229.171C37.0551 236.609 37.6175 238.678 41.0069 246.189C48.4952 263.615 59.2326 281.331 71.4213 297.49C70.6166 261.236 69.9246 224.784 68.7345 188.199C61.4871 202.335 53.7689 215.104 43.4167 229.171ZM42.2165 677.248C38.2122 676.861 10.03 677.902 17.5722 669.687C15.2441 664.634 21.7482 660.37 25.7561 656.527C29.506 652.95 33.2016 648.976 37.0523 644.378C40.6381 640.115 44.6804 635.076 47.2938 629.196C47.8723 628.274 48.4598 627.629 49.0417 627.276L49.3773 627.073L49.5863 626.741C51.7918 623.222 53.6129 619.585 55.6171 616C50.7155 614.23 46.2621 612.452 40.7103 609.995C48.5441 563.872 60.2849 518.936 67.8763 472.678C72.4968 432.424 74.9774 391.791 85.5509 352.147L86.9037 352.251L87.6575 349.653C86.547 349.625 84.2972 349.55 83.1834 349.506L83.4442 350.835C78.4037 350.252 73.4644 348.816 68.5643 347.598C66.0635 347.256 63.5563 345.468 64.4562 342.488C64.7457 338.164 65.6403 333.947 66.0614 329.624C64.4666 328.536 62.8215 327.293 61.2458 326.02C57.0788 327.984 52.0424 334.328 47.4859 332.714C36.8376 318.424 27.9011 301.247 19.8141 287.524C0.281788 255.788 -5.91763 235.95 14.2274 202.859C31.6442 175.138 50.4315 131.077 85.3467 124.119C89.2667 123.388 93.3743 123.357 97.1416 121.571C97.3349 119.011 98.6145 117.54 99.5512 117.519C101.826 117.02 104.324 116.216 106.546 116.196C107.329 115.869 108.286 116.138 109.038 116.285C111.277 111.792 111.077 106.055 113.531 101.843C113.62 98.6513 114.593 95.1251 124.431 94.4835C131.128 93.9246 140.613 93.3861 145.966 96.3118C149.712 99.3268 149.751 106.081 149.281 110.84C148.765 114.335 148.996 118.4 151.734 122.505C159.536 120.097 164.977 125.188 169.862 134.684C190.309 137.468 194.718 139.048 202.651 159.298C206.435 168.079 210.374 177.461 213.323 187.075C217.273 198.827 217.62 211.129 221.46 222.964C231.888 249.049 242.493 265.882 245.833 296.25C247.463 309.658 246.526 316.306 244.977 318.32C240.57 317.046 234.884 316.071 230.256 315.528L235.208 319.294C231.012 338.32 243.099 392.579 210.325 388.41C210.034 387.702 210.568 383.807 210.709 382.191C209.813 382.254 208.156 382.312 207.273 382.202C205.71 386.711 203.364 390.762 201.882 395.349C201.15 398.144 200.224 400.957 199.319 403.675C178.679 473.175 174.591 540.082 183.802 609.855L183.386 610.006L183.217 610.306L182.964 610.401C182.314 611.269 181.393 611.306 179.923 611.308C170.895 611.626 162.962 612.033 155.606 612.238C156.387 616.144 155.887 620.255 155.543 624.228C159.824 623.927 163.752 625.664 167.666 627.751C175.143 631.421 182.591 635.276 189.831 639.49C197.019 644.089 208.644 648.022 202.872 656.288L204.541 656.943C204.597 656.965 204.633 656.984 204.654 656.997C204.851 657.7 202.591 660.606 201.921 660.574C186.114 661.312 172.632 657.621 152.413 653.755C147.783 652.076 124.467 649.22 124.369 644.812C124.443 643.438 125.864 643.532 126.854 643.36C123.884 628.362 133.925 627.151 135.363 613.542C133.375 613.921 131.225 614.245 129.189 613.687C127.402 584.645 130.273 554.916 127.099 525.59L123.872 525.233C113.023 557.144 101.775 589.794 93.1366 622.94C92.972 623.661 92.1648 623.168 91.7957 622.905C86.1494 622.771 80.5014 622.168 74.9648 621.218C74.8318 624.478 74.692 627.798 74.5547 631.055L75.408 631.513C75.9583 632.279 75.7267 635.864 75.627 637.407C75.5265 638.985 75.4434 640.127 75.583 641.197C77.3637 644.707 71.275 652.313 68.0546 656.543C61.0382 665.622 55.2261 679.068 42.2165 677.248Z" fill="white"/>
<path fill-rule="evenodd" clip-rule="evenodd" d="M111.873 102.207C113.784 100.913 111.063 112.138 111.058 113.218L111.01 113.454C110.533 115.74 109.695 118.4 107.764 119.867C108.654 127.143 109.763 134.397 111.127 141.598L111.929 141.703C123.832 143.279 135.813 145.445 147.916 144.316C154.436 144.368 158.753 139.912 161.382 134.386C161.204 133.734 161.026 133.085 160.843 132.433C152.562 127.369 146.292 117.092 150.023 107.39C150.182 106.976 150.676 106.947 150.93 107.163C150.971 107.167 151.009 107.2 151.006 107.246L150.883 109.139C150.623 113.268 150.507 117.549 152.747 121.267C161.757 119.216 167.359 126.717 171.126 133.817L173.832 134.217C184.186 135.753 194.171 137.571 199.283 148.163L199.984 149.651C207.127 164.871 213.784 180.522 217.681 196.911C219.643 205.631 220.353 214.616 223.231 223.12C229.206 238.912 237.627 253.752 242.192 270.1C245.025 275.999 252.998 320.402 245.133 320.74C242.304 319.894 239.423 319.209 236.512 318.723C236.96 319.064 237.124 319.645 237.039 320.237C236.022 327.355 235.946 334.565 235.951 341.742C236.488 359.123 236.007 396.518 209.794 390.515C207.88 389.812 209.123 386.748 209.046 384.607C208.896 384.614 208.744 384.611 208.592 384.602C207.088 388.657 204.978 392.4 203.655 396.521C202.534 400.062 201.75 403.871 200.188 407.262C183.637 466.039 176.805 527.86 183.276 588.696C183.639 592.339 184.048 595.977 184.504 599.608C184.447 601.878 187.141 611.384 184.722 612.022C184.628 612.206 184.302 612.417 184.107 612.482C182.639 614.065 180.197 613.478 178.258 613.689C171.407 613.993 164.556 614.275 157.701 614.502C158.111 617.406 157.78 620.354 157.537 623.255C162.536 623.296 167.13 626.335 171.551 628.398C178.118 631.633 184.577 635.091 190.914 638.757C196.765 642.846 209.836 646.795 205.339 656.066C208.692 657.425 204.032 663.109 201.484 663.173C184.899 663.089 168.42 659.332 152.212 656.034C143.004 653.604 132.955 652.68 124.436 648.489C122.017 647.397 122.524 643.042 125.184 642.637C123.209 628.118 131.227 628.318 133.482 616.225C132.169 616.439 130.72 616.318 129.404 616.052C126.357 618.866 127.476 596.714 127.062 594.55C126.98 571.835 128.058 549.071 125.635 526.434L121.517 538.542C111.917 566.802 102.46 595.134 94.9345 624.025C94.4835 625.769 92.6501 625.978 91.4792 625.217C86.5371 625.072 81.6139 624.608 76.7383 623.821C76.6433 626.132 76.5459 628.443 76.4485 630.753C78.5515 631.885 77.1275 639.016 77.3961 641.428C79.6727 646.665 70.4458 656.746 67.4123 661.067C62.0023 668.614 56.6328 679.174 46.1714 679.525L45.8528 679.533C38.0448 679.723 30.1661 679.267 22.434 678.153L21.5994 678.017C19.3668 677.648 16.8673 677.125 15.5776 675.133C14.4899 673.455 14.6229 671.289 15.9434 670.007C14.1997 663.687 20.9869 659.86 24.778 656.012C31.8599 649.188 38.2966 641.682 43.8626 633.576L44.1823 632.82C45.2141 630.389 46.4468 627.69 48.3678 626.525C50.1991 623.62 51.7639 620.563 53.4192 617.559C48.9022 615.902 44.454 614.051 40.0557 612.103C39.1802 611.714 38.9019 610.577 39.0547 609.731L39.0658 609.674C47.6527 565.13 57.9476 520.905 65.9551 476.259C71.0692 435.113 73.1657 393.444 83.9176 353.203C78.7016 352.661 73.5098 351.164 68.391 349.885C64.2869 349.012 62.2115 346.93 63.0209 342.587C63.2992 338.728 64.073 334.931 64.491 331.088C63.3983 330.324 62.3322 329.521 61.2944 328.696C59.3705 330.13 57.3853 331.481 55.3452 332.741C50.4608 336.256 46.6904 336.803 43.6726 331.043C34.9333 317.25 26.505 303.256 18.5508 288.997C11.1729 275.318 2.02911 261.667 0.156268 245.917C-2.56441 217.574 30.7264 172.215 47.4034 149.18C56.6001 138.084 67.8011 126.665 82.367 123.438C86.8473 122.775 91.5707 122.685 95.8419 121.061C96.1889 118.987 97.164 117.077 99.3663 116.569C101.683 116.057 104.167 115.267 106.5 115.209C107.028 115.061 107.651 114.967 108.208 115.069C109.805 110.926 110.04 106.257 111.873 102.207ZM22.6406 673.283C23.0396 673.479 23.4528 673.65 23.8755 673.802C24.3956 673.873 24.9134 673.939 25.4311 673.998C24.493 673.788 23.562 673.551 22.6406 673.283ZM74.4703 633C66.8198 635.775 64.7166 622.75 49.6692 628.021C43.7885 638.929 36.1753 648.836 27.4732 657.645C24.3802 661.486 15.2252 665.848 20.1588 671.481L20.9144 671.619C29.4822 673.176 38.1789 674.413 46.9096 673.709C53.5071 671.891 58.4547 666.608 62.4535 661.281C65.3464 656.157 68.7306 651.336 72.1854 646.581C74.0848 644.217 74.2774 641.208 74.2684 638.3C74.3323 636.532 74.399 634.766 74.4703 633ZM160.415 626.606C157.167 625.416 153.835 626.535 150.88 627.995C145.833 630.252 134.9 632.955 130.23 629.358C127.941 633.142 127.173 637.348 127.801 641.713L127.808 641.983C127.861 643.745 128.108 645.165 130.252 645.289L136.338 646.819C156.872 651.97 177.608 656.949 198.744 658.382C204.385 654.863 204.543 650.236 198.547 647.014L197.013 646.075C185.241 638.879 173.194 631.807 160.415 626.606ZM205.087 656.536C205.03 656.633 204.975 656.73 204.918 656.824C205.006 656.867 205.087 656.929 205.163 656.995C205.163 656.836 205.139 656.68 205.087 656.536ZM54.5592 617.972C54.6375 619.571 53.8514 621.378 53.2981 622.814C52.9727 623.662 52.6379 624.873 52.1201 625.845C64.9863 622.053 68.8997 633.165 73.5384 630.854L73.6792 630.78V630.777C72.7326 628.616 73.7649 625.573 74.4014 623.418C67.6458 622.197 61.0127 620.298 54.5592 617.972ZM156.216 614.552L152.508 614.666C146.738 614.841 140.968 614.993 135.194 614.985C135.798 619.131 134.616 625.97 131.931 629.192C131.926 629.194 131.921 629.194 131.919 629.196C139.519 630.346 146.716 626.867 153.485 623.942C153.771 620.765 155.019 617.522 156.216 614.552ZM131.399 627.182L130.705 628.476C130.805 628.587 130.919 628.689 131.04 628.777C130.97 628.239 131.162 627.706 131.399 627.182ZM53.7301 617.675C53.6018 618.232 53.4524 618.789 53.2933 619.346C53.5356 618.799 53.8111 618.275 54.1457 617.825L53.7301 617.675ZM134.795 614.988L134.389 614.992L134.386 615.225C134.481 615.384 134.498 615.578 134.379 615.734C134.365 616.45 134.334 617.168 134.28 617.886L134.415 617.057C134.53 616.367 134.651 615.677 134.795 614.988ZM129.634 614.751L129.656 615.111C130.176 615.092 130.701 615.113 131.218 615.087C131.491 615.073 131.772 615.026 132.054 614.976C131.24 614.95 130.428 614.886 129.634 614.751ZM222.063 317.703C221.806 318.005 221.526 318.187 221.241 318.28C221.243 325.122 219.861 331.851 216.074 337.776C214.498 339.864 213.608 342.241 212.846 344.718C208.84 356.055 208.097 368.234 209.557 380.106C213.493 374.336 215.057 367.451 216.156 360.661C216.216 360.32 216.781 360.325 216.843 360.661C218.173 367.928 215.886 375.065 213.152 381.782C211.445 383.002 211.851 386.197 211.646 388.076C240.665 392.302 230.574 336.628 234.291 319.481C234.36 319.009 234.761 318.666 235.217 318.521C230.865 317.857 226.454 317.809 222.063 317.703ZM85.4066 351.907C85.4423 352.089 85.4731 352.272 85.4969 352.454L85.6536 351.916C85.5729 351.913 85.4898 351.911 85.4066 351.907ZM105.018 116.411L104.51 116.544C99.1486 117.926 97.4133 117.736 97.1099 124.206C95.7918 132.986 90.9261 140.645 88.7389 149.135C87.864 152.133 88.7895 157.659 92.9374 156.847C94.2814 156.435 95.329 158.245 94.3125 159.206C91.3083 162.045 88.3919 164.972 85.4589 167.88C97.2365 207.603 112.536 246.294 131.173 283.311C131.912 284.78 129.696 286.072 128.962 284.603C110.434 247.467 95.0251 208.789 83.0651 169.056L82.7038 167.851C82.1756 166.388 88.9293 161.146 90.1588 159.435C77.8267 153.498 95.044 132.703 95.5118 122.689C91.9823 124.24 87.981 123.684 84.2524 124.308C77.0995 125.562 70.821 129.691 65.2405 134.148C42.5723 154.149 28.0864 181.841 13.5958 207.942C3.72739 224.972 -1.02999 245.79 8.87308 263.905C20.3638 287.131 33.6931 309.518 47.786 331.251C49.3334 333.263 51.715 330.95 53.3456 330.106C62.7186 324.478 70.8462 316.821 77.0969 307.867C61.9432 289.288 48.743 268.982 39.4078 246.859L39.2791 246.602C37.1845 242.395 35.5285 237.306 39.0224 233.344C51.4295 217.465 62.464 200.606 72.848 183.354C72.9551 183.181 73.1947 183.333 73.1166 183.513C72.0502 185.926 70.9269 188.32 69.7561 190.692C72.121 225.77 71.7216 261.533 72.7437 296.833C75.501 300.48 78.339 304.066 81.2435 307.595C90.6654 301.107 101.749 296.875 113.131 295.564L113.867 295.491C118.702 294.993 126.688 294.057 127.322 300.329C126.538 308.045 110.579 303.707 105.477 308.083C113.841 311.452 123.425 312.401 131.104 317.478C133.567 318.915 138.396 323.49 133.679 325.241C131.62 325.416 129.494 324.618 127.438 324.442C129.753 325.221 131.881 326.541 133.237 328.611C134.213 330.03 134.926 332.977 132.593 333.584C127.277 333.734 121.982 332.001 116.746 331.14L117.211 331.328C121.028 332.89 126.962 335.695 121.821 339.831C116.674 342.494 110.442 337.965 105.315 336.756C91.5061 333.545 81.2905 342.344 67.1342 332.818C66.7326 336.002 66.1292 339.163 65.8879 342.364L65.8567 342.546C65.366 345.468 65.7862 346.523 68.9394 347.081C72.7411 348.228 76.7228 348.588 80.6735 348.801C99.6855 349.806 118.824 349.093 137.707 346.66C140.424 345.931 146.806 346.618 147.942 343.63C145.814 266.728 113.746 194.366 104.916 118.464C104.772 117.734 104.762 116.989 105.018 116.411ZM158.618 122.983C157.101 123.045 155.689 123.374 154.181 123.526C155.016 125.302 159.425 127.814 159.024 128.695C159.342 128.942 159.665 129.179 159.993 129.408C159.537 127.806 159.076 126.207 158.614 124.604C175.367 165.4 177.669 213.668 179.894 258.171C180.628 280.611 181.027 303.12 179.942 325.546C179.338 331.502 177.743 337.522 178.177 343.537C188.009 344.953 197.984 345.074 207.856 344.026C208.148 343.26 208.478 342.507 208.853 341.767C223.631 323.754 215.794 301.18 208.678 281.668C204.375 281.85 200.047 281.578 195.739 281.631C197.07 285.748 197.413 290.105 198.122 294.363C198.604 297.397 199.219 300.407 199.926 303.395L200.141 304.292C200.404 305.366 200.725 306.516 200.349 307.576C199.969 308.655 198.658 309.09 197.789 308.251C196.222 306.466 196.39 303.804 195.884 301.589L195.791 300.892C194.928 294.534 193.792 287.937 195.369 281.628C193.822 281.296 189.591 282.516 189.37 280.436C189.435 277.001 186.942 269.559 189.717 267.296C191.367 266.038 194.205 266.436 196.141 266.358C198.378 266.268 200.613 266.185 202.848 266.199C184.888 222.806 189.882 209.449 191.705 166.264L191.759 164.946C191.754 164.662 192.213 164.59 192.263 164.877C195.009 182.566 191.348 200.476 193.082 218.221C196.162 251.936 217.531 280.884 221.103 314.438C228.808 313.544 236.603 314.64 244.071 316.573C244.228 315.21 244.349 313.842 244.434 312.475C245.852 287.43 237.062 263.107 226.806 240.644C220.66 228.721 216.861 215.996 215.271 202.69C212.183 185.359 205.255 169.034 198.349 152.935C193.983 140.897 184.546 138.059 172.843 136.661C176.79 143.203 180.714 149.758 184.63 156.319C185.503 158.303 182.825 159.719 181.656 160.94C196.033 168.779 187.638 192.985 187.936 206.548C186.869 219.011 186.466 231.546 184.585 243.922C184.447 244.78 183.131 244.529 183.119 243.725C183.292 225.181 185.504 206.711 186.475 188.196L186.593 186.846C187.35 178.081 188.091 165.435 177.548 163.029C176.125 162.796 176.016 160.682 177.158 160.047C178.678 159.201 180.011 158.167 181.202 156.937C177.175 150.18 173.154 143.418 169.169 136.632L168.982 136.317C166.152 131.516 163.522 125.929 158.618 122.983ZM124.407 299.859C123.244 296.434 111.957 298.664 108.944 299.037C97.8342 301.134 86.6535 306.05 78.1915 313.62C77.6692 314.087 77.0518 314.079 76.5649 313.826C72.7748 318.667 68.3981 323.054 63.598 326.909C64.4765 327.601 65.3792 328.272 66.3075 328.914C66.7519 328.961 67.1532 329.192 67.3337 329.604C80.5407 339.171 90.2564 331.708 103.976 333.432C109.098 334.465 113.816 337.722 119.095 337.859C122.968 336.978 119.557 335.359 117.748 334.733C113.651 332.777 109.475 330.995 105.289 329.237L101.94 327.833C100.295 327.143 100.86 324.657 102.698 325.091C105.916 325.849 109.144 326.57 112.374 327.279C118.585 328.546 124.944 330.171 131.221 330.787C129.825 326.909 115.022 322.722 110.718 321.181C109.092 320.413 104.456 320.559 104.986 318.04C105.413 315.695 110.346 318.38 111.991 318.571C118.706 320.274 125.559 321.306 132.401 322.344C125.052 314.973 113.661 314.337 104.275 310.885L104.017 310.826C102.348 310.437 100.062 309.705 101.419 307.809C106.24 300.701 125.214 304.297 124.407 299.859ZM110.521 260.281C113.944 257.473 115.778 263.24 115.561 265.922C115.722 268.147 115.896 270.373 116.041 272.598C115.827 274.338 117.682 280.683 115.202 280.74C104.357 280.189 93.531 280.328 82.6825 279.675C82.6685 281.863 82.5616 284.048 82.6732 286.238C82.6143 288.977 83.5659 291.712 83.0102 294.42C82.6708 295.664 80.9775 295.832 80.3166 294.771C78.335 290.11 79.6975 284.098 81.1008 279.384C75.7889 278.402 75.056 273.41 76.4557 268.955L76.4412 268.714C76.3632 267.34 76.3693 265.866 76.9827 264.756C78.6235 262.824 82.0258 264.079 84.2858 263.933C91.2129 263.219 98.2675 263.022 105.114 261.75C106.886 261.292 108.693 260.367 110.521 260.281ZM67.4596 195.205C62.0667 205.497 55.8618 215.291 49.256 224.826C47.8406 226.862 46.3871 228.872 44.9104 230.868L44.7284 231.101C41.7499 234.9 38.5923 238.021 41.4096 243.045C48.7157 260.787 58.4981 277.447 69.8321 292.91C69.1144 260.341 68.4803 227.763 67.4596 195.205ZM203.047 266.72C189.497 269.559 189.243 264.243 191.505 279.289C196.939 279.326 202.371 279.204 207.806 279.291C206.253 275.089 204.643 270.906 203.047 266.72ZM112.093 262.471C105.016 264.929 97.5025 264.579 90.1114 264.881C90.1264 266.47 82.5645 264.995 81.1129 265.213L80.6083 265.17C79.4 265.069 77.8464 265.031 77.8329 266.524C78.2179 269.097 76.7692 271.916 77.6667 274.445C78.8781 277.85 84.0599 277.5 86.9193 277.566C91.6337 277.673 96.3476 277.786 101.062 277.91C105.296 278.021 109.545 278.232 113.782 278.263C113.402 275.248 113.297 272.157 113.067 269.145C112.777 266.979 113.196 264.412 112.093 262.471ZM141.851 273.423C141.858 273.461 141.865 273.499 141.874 273.539C141.93 273.525 141.986 273.512 142.044 273.5L142.131 273.482V273.48C142.038 273.463 141.943 273.444 141.851 273.423ZM162.375 138.043C159.314 143.288 154.241 146.656 148.13 146.706C137.404 147.323 126.538 146.614 116.086 144.075C114.549 143.691 112.713 143.357 111.3 142.518C119.37 186.228 132.414 228.808 141.613 272.266C148.275 272.853 154.917 272.791 161.593 272.477C166.746 272.399 171.951 272.953 177.068 272.188L176.909 266.792C175.617 223.604 173.82 179.894 162.375 138.043Z" fill="black"/>
<path fill-rule="evenodd" clip-rule="evenodd" d="M93.0885 24.9318C94.3201 23.6128 95.8954 22.6302 97.6174 22.3162C96.0433 23.1009 94.5047 23.9188 93.0885 24.9318ZM90.6761 36.3045C90.4583 35.2993 90.312 34.2845 90.2659 33.2698C90.5412 33.6874 90.9808 33.9664 91.4745 34.1105C91.1556 34.8232 90.8844 35.5574 90.6761 36.3045ZM173.09 52.0641C171.668 46.1585 165.036 34.7993 163.468 32.613C161.766 27.1994 171.05 22.858 166.001 18.6247C163.715 16.7147 160.693 16.0387 157.859 15.3613C138.235 10.6581 117.151 13.0301 98.9512 21.6788C96.1828 21.0975 93.2984 22.2337 91.2852 24.2293C81.8272 33.7163 94.7167 50.8337 97.5353 61.529C102.371 73.4546 92.4098 75.4607 93.478 85.5509C94.308 90.7637 99.5986 92.1415 104.063 92.9293C104.779 93.0964 105.735 93.1215 105.966 93.8764C106.69 98.2826 109.169 102.482 112.499 105.332C112.208 106.192 112.43 107.237 113.457 107.993C122.759 114.892 134.487 118.344 146.089 117.724C159.915 116.984 167.066 109.076 168.791 107.039C178.331 94.1821 177.191 77.2184 175.245 61.8959C173.889 51.222 175.608 62.5257 173.09 52.0641Z" fill="white"/>
<path fill-rule="evenodd" clip-rule="evenodd" d="M130.457 2.92329C130.892 1.5676 132.122 0.752282 133.53 0.92056C134.777 1.06751 136.112 2.30233 135.96 3.66514C135.931 3.92822 135.893 4.17471 135.848 4.40698L135.854 4.40905L135.86 4.40935L135.829 4.49941C135.737 4.93314 135.608 5.32184 135.418 5.6892C135.176 6.39312 134.943 7.09941 134.713 7.80807C135.045 7.79385 135.385 7.81281 135.729 7.8768C136.086 6.96669 136.444 6.05894 136.801 5.14645C137.183 4.17234 137.451 2.92092 138.206 2.16723C139.173 1.20497 140.85 1.00588 142.028 1.69321C143.272 2.41846 143.716 3.7078 143.445 5.08957C143.308 5.79438 142.836 6.28489 142.252 6.59307L142.189 6.62539L141.74 7.6872C141.878 7.62794 142.021 7.57343 142.175 7.5284C142.417 7.4573 142.655 7.41226 142.887 7.3933C143.529 6.23432 144.234 5.10853 144.963 4.00406C145.801 2.73369 147.44 2.1933 148.815 2.99677C150.045 3.71491 150.706 5.60151 149.824 6.84107C149.155 7.782 148.521 8.74189 147.896 9.71126C148.003 9.73022 148.11 9.75392 148.212 9.78473C148.259 9.72074 148.309 9.65675 148.362 9.59276C149.043 8.749 149.836 8.11618 150.651 7.41463C151.413 6.75575 151.765 5.72001 152.767 5.21992C154.028 4.59185 155.548 4.89285 156.298 6.14426C157.909 8.82484 155.206 10.7825 153.477 12.4061C154.98 11.4699 156.545 10.6143 158.151 9.8748C159.053 9.46003 159.97 9.05948 160.901 8.71345C162.281 8.20151 163.397 8.36528 164.53 9.31783C165.036 9.74444 165.287 10.6761 165.055 11.2969C164.603 12.4866 163.891 13.2095 162.642 13.5532C161.763 13.7949 160.863 13.9585 159.984 14.2121C158.512 14.634 157.082 15.1483 155.695 15.7906C155.795 15.8522 155.89 15.9186 155.978 15.9944C157.013 15.6602 158.068 15.3711 159.127 15.1246C160.884 14.7135 162.672 14.4358 164.467 14.262L165.064 14.2066C167.217 14.0004 169.806 13.6199 171.127 15.6768C171.562 16.3547 171.609 17.4733 171.127 18.1441C170.206 19.4334 169.289 19.6894 167.764 19.7131C169.265 19.8719 170.764 20.0686 172.255 20.2985C173.283 20.4549 174.311 20.6322 175.335 20.829L175.846 20.9289C177.093 21.1778 178.485 21.3224 179.556 22.0429C181.893 23.6166 180.795 26.6812 178.207 27.0083C176.955 27.1647 175.566 26.6361 174.338 26.3897C173.146 26.1503 171.949 25.9393 170.747 25.7545C170.125 25.6573 169.503 25.572 168.878 25.4938C170.149 25.6763 171.41 25.9346 172.638 26.2996L172.979 26.4023C175.352 27.1243 178.556 28.2741 179.297 30.8052C179.746 32.3433 178.518 33.6848 177.031 33.7749C175.649 33.8578 174.497 33.0354 173.324 32.4287C172.469 31.9878 171.6 31.6584 170.678 31.3763C169.726 31.0848 168.755 30.8431 167.776 30.6464C168.603 31.101 169.408 31.6007 170.181 32.1596L170.537 32.4216C172.591 33.9494 175.725 36.3148 175.001 39.1787C174.773 40.0817 173.763 40.9444 172.794 40.852C170.272 40.6174 168.881 37.9368 166.978 36.5005C166.482 36.126 165.938 35.7563 165.368 35.396C168.251 38.8279 170.545 42.7955 172.291 46.8934C176.127 55.9087 177.304 64.2577 177.332 73.9512L177.333 74.2515C177.338 79.5984 177.216 85.0425 176.694 90.3658C176.21 95.2837 175.321 100.138 173.087 104.591C169.341 112.059 162.043 117.876 153.995 120.089C145.039 122.554 135.029 120.627 127.693 114.939C125.821 113.488 128.303 110.339 130.215 111.678C137.85 117.022 147.725 118.715 156.488 115.098C163.44 112.23 169.037 106.061 171.41 98.9574C172.92 94.4385 173.36 89.6202 173.898 84.9108L173.934 84.597C174.504 79.6719 174.834 74.7136 174.83 69.7554C174.823 60.5475 173.497 52.968 169.439 44.6157C167.529 40.6814 165.052 37.0435 162.093 33.8507C161.195 34.0332 160.241 33.7773 159.334 33.6801C158.87 33.6303 158.407 33.5829 157.944 33.5402C158.417 33.8455 158.881 34.1629 159.337 34.4877L159.935 34.9182C161.807 36.256 164.182 37.7798 163.701 40.3661C163.57 41.0653 162.872 41.7076 162.195 41.8664C159.742 42.4495 158.056 40.0699 156.398 38.6573C154.957 37.4296 153.449 36.3299 151.912 35.2278C151.563 34.9789 151.211 34.73 150.858 34.4835C151.19 34.8703 151.513 35.2632 151.829 35.6597L152.295 36.2497C153.707 38.0119 155.741 40.3025 154.484 42.5869C154.128 43.2316 153.368 43.6606 152.632 43.6464C150.1 43.5942 149.093 40.7264 147.906 38.9156C146.884 37.3632 145.775 35.9009 144.628 34.4385C144.312 34.038 143.994 33.6374 143.671 33.2369C138.354 33.5118 133.055 34.2134 127.85 35.3344C124.273 36.1047 120.756 37.1027 117.265 38.1951L116.975 38.2872C115.085 38.8943 113.138 39.6713 111.776 41.0037C111.582 41.9217 111.731 42.8898 111.917 43.8066L112.062 44.5083C112.659 47.4427 113.066 50.3227 112.762 53.3353C112.446 56.4425 111.508 59.2369 110.363 62.1237C109.822 63.4841 109.261 63.2376 109.069 64.6976C108.922 65.8096 109.013 66.9576 109.113 68.079L109.197 69.0297C109.409 71.5199 109.515 74.235 107.879 76.2897C107.625 76.605 107.081 76.4794 106.901 76.1641C106.829 76.0385 106.753 75.9176 106.67 75.8015C105.882 74.6615 104.673 74.0121 103.291 73.7609C103.115 73.73 103.184 73.4954 103.331 73.4764C104.5 73.339 105.606 73.6305 106.547 74.2325C106.101 72.6935 102.648 73.4419 101.513 73.741L101.474 73.7514C100.059 74.1306 98.7191 74.7468 97.5388 75.619C95.1639 77.3729 93.7912 80.108 93.8601 83.054C93.929 85.9503 95.4275 88.6261 98.0019 90.0126C99.244 90.681 100.657 91.0033 102.063 90.9891C103.531 90.9749 104.837 90.3326 106.307 90.4227C107.157 90.4748 107.808 91.3849 107.316 92.1789C106.988 92.7098 106.561 93.1269 106.067 93.4469C107.271 96.2176 108.808 98.8602 110.579 101.299C111.56 102.652 112.672 103.901 113.895 105.041C114.849 105.933 116.918 106.964 116.802 108.45C116.761 108.985 116.483 109.312 115.994 109.511C114.473 110.132 112.624 107.995 111.606 106.965L111.525 106.883C110.256 105.622 109.1 104.228 108.093 102.75C106.307 100.123 105.198 97.1632 104.739 94.0536C102.3 94.786 99.0706 94.0987 97.0804 93.2004C90.825 90.38 88.7802 81.9733 92.5824 76.3751C93.3186 75.2919 94.2401 74.3652 95.2898 73.6163C95.0594 73.4907 94.8433 73.3295 94.6509 73.1257C93.5868 71.9976 92.8344 70.5255 92.0878 69.1687L91.9982 69.0064C91.3353 67.8119 90.71 66.5986 90.1238 65.3667L89.9059 64.9038C88.5973 62.0952 87.4502 60.8675 86.5169 57.9144C85.6192 55.0655 84.9115 52.1621 84.4531 49.209L84.3313 48.4273C84.0662 46.7137 83.8155 44.8813 84.009 43.1415C82.6767 43.5753 81.3373 43.8431 80.0192 43.1913C79.15 42.7623 78.6703 41.5109 78.9671 40.6126C79.1832 39.9514 79.5442 39.4323 80.0026 39.0247C79.7295 38.8872 79.473 38.7118 79.2474 38.5175L79.0502 38.347C78.2523 37.6547 78.1953 36.3393 78.6798 35.4719C78.7273 35.3889 78.7748 35.3036 78.8199 35.2206C79.2806 34.3982 80.2329 33.8602 81.1734 33.8744C81.3254 33.8768 81.4774 33.8768 81.6317 33.8744C81.1924 33.7773 80.7625 33.6279 80.3541 33.3767C78.5111 32.2462 78.7439 29.1816 80.9739 28.6413C81.9096 28.4161 82.9427 28.5085 83.9734 28.7503C83.9354 28.7289 83.8974 28.7076 83.8594 28.6839C83.0804 28.2075 82.4273 27.2761 82.501 26.3209C82.5817 25.2639 82.9237 24.5102 83.8594 23.9556C84.6716 23.4768 85.8211 23.4318 86.6285 23.9556C87.3291 24.413 88.0155 24.9178 88.6757 25.4606C88.0131 24.6476 87.4384 23.7636 87.2056 22.825C86.9183 21.6566 87.398 20.3838 88.4524 19.7676C89.2932 19.277 90.1814 19.3315 90.9746 19.7107C90.9318 19.0969 91.0815 18.4712 91.4899 17.9165C92.3259 16.7791 93.8458 16.1248 95.1686 16.9543C95.342 17.0633 95.5748 17.2505 95.8004 17.4804C95.361 16.0845 95.7576 14.6197 97.2562 13.9893C98.1705 13.603 99.4078 13.7973 100.201 14.4633C99.6976 11.7448 103.718 9.74681 105.281 12.5554C105.636 13.1916 105.986 13.8616 106.3 14.5469L106.416 14.8046L106.428 14.7999L106.348 14.6114L106.267 14.423C105.832 13.4157 105.279 12.3681 105.127 11.2755C104.903 9.65912 105.625 8.12566 107.387 7.88865C108.297 7.76541 109.309 8.17781 109.919 8.89855C109.589 6.39075 112.396 4.56814 114.417 6.44052C115.374 7.32694 115.885 8.62339 116.493 9.76103C116.837 10.4033 117.189 11.0433 117.533 11.6879C117.621 11.5836 117.716 11.4794 117.816 11.3774C117.305 9.8511 116.908 8.28683 116.574 6.71308C116.255 5.2294 116.999 3.68884 118.533 3.26957C119.927 2.88537 121.672 3.74359 121.984 5.2249C122.202 6.26751 122.461 7.29874 122.746 8.32475C122.941 8.27735 123.133 8.24417 123.323 8.22047C123.339 8.0277 123.357 7.83388 123.377 7.64111L123.452 6.95551C123.618 5.38901 123.785 3.60077 124.605 2.26915C126.004 -0.00614953 129.59 0.93715 129.628 3.62721C129.65 5.01846 129.082 6.39786 128.885 7.77489C128.8 8.37453 128.75 8.98127 128.721 9.58802C129.104 7.57343 129.628 5.58492 130.236 3.62721C130.308 3.39257 130.384 3.15793 130.457 2.92329ZM99.5171 80.6105C102.664 80.1246 105.54 81.8761 107.404 84.3292C107.744 84.7772 107.52 85.41 107.214 85.7868C106.993 86.0641 106.696 86.0973 106.361 86.14C105.977 86.1897 105.49 85.8792 105.321 85.5451C104.122 83.156 101.982 81.6462 99.5171 80.7172C99.4719 80.7006 99.4577 80.62 99.5171 80.6105ZM103.879 37.8054L103.975 37.7033C104.611 37.0442 103.605 36.0374 102.967 36.6979C102.295 37.3933 101.849 38.238 101.419 39.0941C101.01 39.9104 102.239 40.6314 102.65 39.812L102.837 39.4396C103.13 38.8605 103.443 38.2885 103.879 37.8054ZM95.0421 36.4526C95.9445 36.3009 95.5619 34.9303 94.6633 35.0815C93.4991 35.2773 92.3394 35.4998 91.175 35.6959C90.2728 35.8475 90.6554 37.2182 91.5541 37.0672C92.7182 36.8712 93.8779 36.6486 95.0421 36.4526ZM148.802 27.0952C147.93 26.8049 147.556 28.1779 148.423 28.4666C149.621 28.8655 150.81 29.2743 151.946 29.8282C152.767 30.2283 153.491 29.0022 152.666 28.6003C151.418 27.9923 150.117 27.5332 148.802 27.0952ZM94.8369 25.2522C93.9855 24.9124 93.6157 26.2873 94.4581 26.6236L97.5359 27.852C98.3873 28.1919 98.7571 26.8172 97.9147 26.4809L94.8369 25.2522ZM159.549 21.9134L159.437 21.8426C158.665 21.3435 157.95 22.574 158.718 23.0706C159.168 23.3619 159.716 23.5595 160.129 23.9066L160.215 23.9833C160.881 24.6114 161.891 23.6079 161.223 22.9777C160.734 22.517 160.115 22.2606 159.549 21.9134Z" fill="black"/>
<path fill-rule="evenodd" clip-rule="evenodd" d="M149.519 101.848C147.923 101.198 146.498 100.114 145.457 98.7286C145.095 98.2471 145.001 97.7387 145.077 97.2737C145.162 96.7508 145.472 96.2769 145.895 95.959C146.319 95.6402 146.85 95.4829 147.362 95.5631C147.808 95.6327 148.252 95.8762 148.603 96.3812L148.676 96.4822C149.295 97.3181 150.102 98.004 151.021 98.446C151.907 98.8721 152.898 99.071 153.924 98.9554C155.877 98.7352 157.223 97.6811 158.654 96.2496C158.831 96.0689 159.008 95.8825 159.187 95.6931C159.299 95.5214 159.456 95.4111 159.629 95.3532C159.822 95.2889 160.04 95.2925 160.239 95.3621C160.432 95.4291 160.604 95.5562 160.719 95.7253C160.829 95.886 160.891 96.0846 160.871 96.313C160.74 97.7965 159.963 99.1204 158.859 100.16C157.633 101.315 156.008 102.113 154.478 102.393C152.792 102.702 151.075 102.481 149.519 101.848ZM155.273 78.9622C157.066 80.0501 159.799 82.5868 157.87 85.2838C155.599 87.6619 152.329 84.9353 150.718 83.7021C149.224 82.7465 147.545 85.2044 148.932 86.3203C160.574 94.9227 165.299 79.2467 156.18 77.6831C155.176 77.5108 154.803 78.6256 155.273 78.9622ZM134.409 68.9554C134.608 66.5009 138.353 65.9435 138.726 68.3724C139.06 70.5482 138.667 72.5469 137.685 74.5057C136.747 76.3772 134.388 75.5041 134.21 73.8C133.971 71.5157 134.286 70.4823 134.409 68.9554ZM162.923 67.8688C163.446 67.1862 164.2 66.7202 165.103 66.9835C167.926 67.8067 167.094 71.8058 166.102 73.7523C165.564 74.8094 163.823 75.0774 163.036 74.1467C161.753 72.6289 161.139 69.5978 162.77 68.1027C162.814 68.0254 162.863 67.9475 162.923 67.8688ZM137.645 58.2151L138.091 58.1372C139.47 57.8992 141.185 57.6704 142.161 58.7771C142.678 59.3639 142.857 60.4546 142.161 61.0163C140.937 62.0047 139.585 61.6217 138.118 61.7053C136.91 61.7745 135.749 61.9741 134.585 62.3062C132.031 63.0345 129.951 64.3641 127.77 65.8241C127.484 66.0156 127.192 65.6504 127.328 65.3833C128.587 62.9224 131.027 60.9009 133.471 59.6687C134.775 59.011 136.202 58.4654 137.645 58.2151ZM160.35 57.1128L160.692 57.1825C164.405 57.9572 169.23 59.5047 170.989 63.145C171.056 63.6598 170.985 63.7701 170.927 63.8422L170.908 63.8662C170.861 63.9277 170.823 64.0126 170.599 64.0826C170.537 64.0679 170.475 64.0522 170.411 64.0357C169.605 63.8249 168.967 63.5344 168.35 63.233L167.681 62.9039C166.904 62.5238 166.12 62.1576 165.29 61.8872C163.518 61.3103 161.695 60.904 159.844 60.687C159.442 60.64 159.056 60.5048 158.751 60.2732C158.462 60.0534 158.241 59.749 158.14 59.3445C158.01 58.8209 158.047 58.4245 158.329 57.9522C158.54 57.5975 158.843 57.3516 159.191 57.2104C159.545 57.0665 159.949 57.0326 160.35 57.1128Z" fill="black"/>
<path fill-rule="evenodd" clip-rule="evenodd" d="M175.288 75.4224C174.616 77.2465 173.594 79.1454 172.344 80.6805C167.287 84.9543 162.373 82.5879 159.878 76.7957C158.93 72.7023 161.447 68.2929 164.114 65.2817C167.966 61.4286 174.253 63.4508 176.024 68.0313C176.132 68.6247 176.197 69.2168 176.228 69.8069C176.191 71.7246 175.959 73.3635 175.288 75.1854M126.678 71.7438C133.34 63.8355 145.804 63.4127 145.486 75.5843C144.055 90.9909 119.956 87.2094 126.678 71.7438ZM177.383 65.1466C177.149 64.752 176.89 64.3702 176.607 64.0049C176.503 63.9428 176.443 63.392 176.059 63.3513C170.922 57.6964 161.9 60.9048 158.639 66.5395C158.044 67.252 157.558 68.086 157.2 68.9672C153.988 68.3792 150.243 68.4934 147.255 69.7043C144.293 61.9844 135.324 61.2952 129.414 64.5937C125.737 66.398 123.354 70.1767 119.779 72.2524C111.374 72.8561 102.354 70.9768 94.1013 73.0808C87.5927 74.4312 93.0335 77.7202 94.125 75.5253C101.906 73.231 111.124 75.1698 119.203 74.6529C120.043 76.0709 121.654 77.2313 123.259 77.1817C124.993 92.5213 147.408 89.9777 148.181 76.3418C149.058 74.9579 150.149 73.6335 151.711 72.7712C152.308 72.6477 152.886 72.4873 153.413 72.2389C154.315 72.1119 155.705 72.4935 156.535 73.2429C159.377 90.264 175.753 88.2816 178.68 73.3704C178.738 73.3111 178.901 73.0888 179.026 72.7321C180.028 71.4103 182.48 70.919 182.088 68.6875C181.739 66.4556 178.915 66.4822 177.383 65.1466Z" fill="black"/>
</svg>
